<svg xmlns="http://www.w3.org/2000/svg" xmlns:xlink="http://www.w3.org/1999/xlink"><symbol id="adv-detective" viewBox="0 0 35 35">
<path d="M17.5 11.0172C17.1227 11.0172 16.8164 11.3751 16.8164 11.8166C16.8164 12.2579 17.1227 12.6161 17.5 12.6161C17.8773 12.6161 18.1836 12.2579 18.1836 11.8166C18.1836 11.3751 17.8773 11.0172 17.5 11.0172Z"/>
<path d="M32.9492 15.8139H30.2893C28.8872 11.1316 26.8527 2.92165 23.1672 0.598015C21.3239 -0.562708 19.5815 0.247956 18.9262 1.89489C18.6474 2.59501 18.0907 2.96318 17.5 2.96318C16.9013 2.96318 16.3491 2.58689 16.0738 1.89551C15.4417 0.30479 13.741 -0.580195 11.9624 0.429387C8.21781 2.55597 6.12377 11.0964 4.71066 15.8139H2.05078C0.917778 15.8139 0 16.8869 0 18.2121C0 19.5343 0.919914 20.6104 2.05078 20.6104H32.9492C34.0822 20.6104 35 19.5371 35 18.2121C35 16.8897 34.0801 15.8139 32.9492 15.8139ZM7.11205 12.6162H14.7656C15.1432 12.6162 15.4492 12.258 15.4492 11.8168C15.4492 11.3752 15.1432 11.0174 14.7656 11.0174H7.59003C9.65069 4.3606 11.5757 2.42638 12.5594 1.86772C13.6326 1.25879 14.516 1.76842 14.8343 2.56971C15.3357 3.82943 16.3731 4.56202 17.5 4.56202C18.6295 4.56202 19.6656 3.82662 20.1657 2.56971C20.4934 1.74562 21.3813 1.28939 22.5185 2.00543C23.5068 2.62873 25.4259 4.62729 27.4097 11.0174H20.2344C19.8568 11.0174 19.5508 11.3752 19.5508 11.8168C19.5508 12.2583 19.8568 12.6162 20.2344 12.6162H27.8882C28.2338 13.7816 28.5926 14.9842 28.841 15.8139H6.15929C6.40682 14.9864 6.76491 13.7866 7.11205 12.6162ZM32.9492 19.0116H2.05078C1.67374 19.0116 1.36719 18.6528 1.36719 18.2121C1.36719 17.7706 1.6732 17.4127 2.05078 17.4127H32.9492C33.3263 17.4127 33.6328 17.7712 33.6328 18.2121C33.6328 18.6534 33.3265 19.0116 32.9492 19.0116Z"/>
<path d="M16.1328 23.8081H5.19532C4.81774 23.8081 4.51173 24.1659 4.51173 24.6075V27.8052C4.51173 31.7723 7.27174 35 10.6641 35C13.2345 35 15.5096 33.151 16.4145 30.3655C17.1019 29.9989 17.8981 29.9989 18.5855 30.3655C19.4904 33.151 21.7655 34.9996 24.3359 34.9996C27.7283 34.9996 30.4883 31.7723 30.4883 27.8048V24.6072C30.4883 24.1656 30.1823 23.8077 29.8047 23.8077H18.8672C18.4896 23.8077 18.1836 24.1656 18.1836 24.6072V25.4066H16.8164V24.6072C16.8164 24.1659 16.5104 23.8081 16.1328 23.8081ZM10.6641 33.4011C8.02556 33.4011 5.87891 30.8907 5.87891 27.8052V25.4069H15.4492V27.8052C15.4492 30.8989 13.3141 33.4011 10.6641 33.4011ZM19.5508 25.4069H29.1211V27.8052C29.1211 30.8907 26.9745 33.4011 24.3359 33.4011C21.6793 33.4011 19.5508 30.8914 19.5508 27.8052V25.4069ZM18.1836 27.0057V27.8052C18.1836 28.0606 18.1961 28.3151 18.2188 28.5677C17.7438 28.4662 17.2562 28.4662 16.7812 28.5677C16.8039 28.3151 16.8164 28.0606 16.8164 27.8052V27.0057H18.1836Z"/>
<path d="M10.6641 30.2033C9.53321 30.2033 8.6133 29.1272 8.6133 27.805C8.6133 27.3635 8.30728 27.0056 7.9297 27.0056C7.55212 27.0056 7.24611 27.3635 7.24611 27.805C7.24611 30.0088 8.77939 31.8021 10.6641 31.8021C11.0417 31.8021 11.3477 31.444 11.3477 31.0027C11.3477 30.5612 11.0417 30.2033 10.6641 30.2033Z"/>
<path d="M24.336 31.8021C26.2206 31.8021 27.7539 30.0088 27.7539 27.805C27.7539 27.3635 27.4479 27.0056 27.0703 27.0056C26.6927 27.0056 26.3867 27.3635 26.3867 27.805C26.3867 29.1272 25.4668 30.2033 24.336 30.2033C23.9584 30.2033 23.6524 30.5612 23.6524 31.0027C23.6524 31.444 23.9584 31.8021 24.336 31.8021Z"/>
</symbol><symbol id="adv-hired" viewBox="0 0 35 35">
<path d="M31.2638 27.8931C31.639 27.3746 31.8609 26.7384 31.8609 26.0511V21.9434C31.8609 21.5658 31.5548 21.2598 31.1773 21.2598H28.1222C26.7099 21.2598 25.5609 22.4087 25.5609 23.8211V26.0511C25.5609 26.738 25.7826 27.3738 26.1573 27.8921C25.69 27.9679 25.2404 28.1176 24.8211 28.3367C23.8713 26.9195 22.3152 25.9421 20.5271 25.7772C20.5201 25.7752 20.513 25.7738 20.506 25.7721C21.1457 25.0577 21.5357 24.1151 21.5357 23.0829V17.5C21.5357 17.1225 21.2296 16.8164 20.8521 16.8164H16.6999C14.9157 16.8164 13.4643 18.2679 13.4643 20.052V23.0828C13.4643 24.1151 13.8543 25.0576 14.494 25.772C14.487 25.7737 14.4799 25.7752 14.4729 25.7772C12.6846 25.942 11.1284 26.9196 10.1787 28.337C9.75926 28.1179 9.30959 27.9681 8.84249 27.8923C9.21724 27.374 9.43906 26.7381 9.43906 26.0511V21.9434C9.43906 21.5658 9.13295 21.2598 8.75547 21.2598H5.70035C4.28805 21.2598 3.13906 22.4087 3.13906 23.8211V26.0511C3.13906 26.7385 3.36103 27.3746 3.73618 27.8931C1.62025 28.2389 0 30.0791 0 32.2913V34.3164C0 34.694 0.306113 35 0.683594 35H34.3164C34.6939 35 35 34.694 35 34.3164V32.2913C35 30.0791 33.3797 28.2389 31.2638 27.8931ZM4.50625 23.8211C4.50625 23.1626 5.04191 22.627 5.70035 22.627H8.07188V23.4595C8.07188 23.8677 7.73979 24.1998 7.33161 24.1998H4.50625V23.8211ZM4.50625 25.567H7.33161C7.59206 25.567 7.84144 25.5192 8.07188 25.4324V26.0511C8.07188 27.0341 7.27214 27.8339 6.28906 27.8339C5.30599 27.8339 4.50625 27.0341 4.50625 26.0511V25.567ZM6.72978 29.2011L6.28906 29.6418L5.84835 29.2011H6.72978ZM9.19789 31.564V33.6328H1.36719V32.2913C1.36719 30.758 2.48985 29.4826 3.95616 29.2424L5.80569 31.0919C5.93394 31.2201 6.10777 31.2921 6.28906 31.2921C6.47035 31.2921 6.64419 31.2201 6.77243 31.0919L8.62251 29.2417C8.94927 29.2949 9.26352 29.4003 9.55637 29.5544C9.32477 30.1809 9.19789 30.8579 9.19789 31.564ZM17.5001 25.7515C16.0286 25.7515 14.8315 24.5543 14.8315 23.0829V22.1794H18.917C19.37 22.1794 19.7965 22.0637 20.1686 21.8604V23.0829C20.1686 24.5543 18.9715 25.7515 17.5001 25.7515ZM18.6916 27.1186L17.5 28.3102L16.3084 27.1186H18.6916ZM14.8314 20.052H14.8315C14.8315 19.0217 15.6696 18.1836 16.6999 18.1836H20.1685V19.5606C20.1685 20.2508 19.607 20.8123 18.9169 20.8123H14.8314V20.052ZM24.4349 33.6328H23.1055H11.8945H10.5651V32.2656H15.0163C15.3938 32.2656 15.6999 31.9596 15.6999 31.582C15.6999 31.2045 15.3938 30.8984 15.0163 30.8984H10.6151C10.9081 28.9556 12.4633 27.422 14.4158 27.1595L17.0166 29.7603C17.1501 29.8938 17.3251 29.9605 17.5 29.9605C17.6749 29.9605 17.8499 29.8938 17.9834 29.7603L20.5842 27.1595C22.755 27.4513 24.4349 29.3145 24.4349 31.564V33.6328ZM26.9281 23.8211C26.9281 23.1626 27.4638 22.627 28.1222 22.627H30.4937V23.4595C30.4937 23.8677 30.1617 24.1998 29.7535 24.1998H26.9281V23.8211ZM26.9281 25.567H29.7535C30.0139 25.567 30.2633 25.5192 30.4937 25.4324V26.0511C30.4937 27.0341 29.694 27.8339 28.7109 27.8339C27.7279 27.8339 26.9281 27.0341 26.9281 26.0511V25.567ZM29.1516 29.2011L28.7109 29.6418L28.2702 29.2011H29.1516ZM25.802 33.6328V31.564C25.802 30.8578 25.6752 30.1809 25.4435 29.5542C25.7362 29.4 26.0504 29.2947 26.3772 29.2416L28.2275 31.0919C28.3557 31.2201 28.5296 31.2921 28.7109 31.2921C28.8922 31.2921 29.066 31.2201 29.1942 31.0919L31.0438 29.2424C32.5101 29.4826 33.6327 30.758 33.6327 32.2913V33.6328H25.802Z"/>
<path d="M20.869 4.4665C20.602 4.19956 20.1693 4.19956 19.9022 4.4665L16.5478 7.82097L15.0977 6.37086C14.8307 6.10385 14.398 6.10385 14.131 6.37079C13.8641 6.63773 13.8641 7.07059 14.131 7.3376L16.0645 9.27107C16.1927 9.39925 16.3665 9.4713 16.5478 9.4713C16.7291 9.4713 16.903 9.39925 17.0312 9.27107L20.869 5.43324C21.136 5.1663 21.136 4.73345 20.869 4.4665Z"/>
<path d="M20.295 0.592814C19.9503 0.439074 19.5461 0.593908 19.3923 0.938712C19.2385 1.28352 19.3934 1.68773 19.7382 1.84147C21.7205 2.72556 23.0015 4.69889 23.0015 6.86875C23.0015 9.90227 20.5335 12.3702 17.5 12.3702C14.4664 12.3702 11.9985 9.90227 11.9985 6.86875C11.9985 4.7101 13.2702 2.74087 15.2382 1.85199C15.5823 1.69661 15.7353 1.29165 15.5798 0.947599C15.4244 0.603478 15.0193 0.450558 14.6755 0.605939C12.2188 1.71555 10.6313 4.17382 10.6313 6.86868C10.6313 10.6561 13.7126 13.7374 17.5 13.7374C21.2873 13.7374 24.3686 10.6561 24.3686 6.86875C24.3686 4.15987 22.7696 1.69641 20.295 0.592814Z"/>
<path d="M17.5245 0H17.5C17.1225 0 16.8164 0.306045 16.8164 0.683594C16.8164 1.06114 17.1225 1.36719 17.5 1.36719H17.518C17.5191 1.36719 17.5202 1.36719 17.5213 1.36719C17.8974 1.36719 18.2031 1.06326 18.2049 0.686807C18.2066 0.309258 17.902 0.00177734 17.5245 0Z"/>
<path d="M17.9832 31.0987C17.8562 30.9716 17.6798 30.8984 17.5 30.8984C17.3202 30.8984 17.1438 30.9716 17.0167 31.0987C16.8896 31.2259 16.8164 31.4022 16.8164 31.582C16.8164 31.7618 16.8895 31.9382 17.0167 32.0653C17.1439 32.1925 17.3202 32.2656 17.5 32.2656C17.6798 32.2656 17.8562 32.1925 17.9832 32.0653C18.1104 31.9382 18.1836 31.7618 18.1836 31.582C18.1836 31.4022 18.1104 31.2259 17.9832 31.0987Z"/>
</symbol><symbol id="adv-tag" viewBox="0 0 35 35">
<path d="M11.0709 8.58472C10.9437 8.45756 10.7674 8.3844 10.5876 8.3844C10.4078 8.3844 10.2314 8.45756 10.1043 8.58472C9.9772 8.71189 9.90399 8.88828 9.90399 9.0681C9.90399 9.24791 9.97714 9.4243 10.1043 9.55147C10.2314 9.67871 10.4078 9.75179 10.5876 9.75179C10.7674 9.75179 10.9437 9.67864 11.0709 9.55147C11.198 9.4243 11.2712 9.24791 11.2712 9.0681C11.2712 8.88828 11.198 8.71189 11.0709 8.58472Z"/>
<path d="M34.8 2.85866L33.9548 2.01231L34.7998 1.16719C35.0667 0.900207 35.0667 0.46729 34.7998 0.200238C34.5328 -0.0667459 34.1 -0.0667459 33.833 0.200238L32.9885 1.04481L32.1556 0.210835C32.0275 0.0825735 31.8537 0.0103751 31.6724 0.0103067L20.1023 0.00387998C20.1016 0.00387998 20.101 0.00387998 20.1004 0.00387998C19.1868 0.00387998 18.3278 0.359676 17.6818 1.00584L11.9081 6.78034C11.6412 7.04732 11.6412 7.48024 11.9081 7.74729C12.1751 8.01428 12.6079 8.01428 12.8749 7.74729L18.6486 1.97279C19.0364 1.58486 19.5519 1.37134 20.1004 1.37134C20.1008 1.37134 20.1012 1.37134 20.1016 1.37134L31.3884 1.37763L32.0219 2.01183L29.4854 4.54862C28.4099 3.9043 26.9919 4.0448 26.066 4.97066C25.5371 5.49971 25.2459 6.20303 25.2459 6.95113C25.2459 7.69923 25.5371 8.40255 26.066 8.93159C26.612 9.47759 27.3291 9.75059 28.0463 9.75059C28.7634 9.75059 29.4805 9.47759 30.0264 8.93159C30.9508 8.00703 31.0922 6.59164 30.4514 5.51646L32.9881 2.97933L33.6327 3.62481L33.6265 14.8981C33.6261 15.4461 33.4126 15.9614 33.025 16.349L16.3438 33.0327C15.956 33.4205 15.4403 33.6341 14.892 33.6341C14.3436 33.6341 13.8279 33.4205 13.4401 33.0327L1.96861 21.5593C1.58074 21.1715 1.36719 20.6558 1.36719 20.1073C1.36719 19.5588 1.58074 19.0431 1.96861 18.6553L9.33734 11.2854C9.60429 11.0184 9.60429 10.5855 9.33734 10.3185C9.07033 10.0515 8.63762 10.0515 8.37054 10.3185L1.00181 17.6883C0.355811 18.3344 0 19.1935 0 20.1073C0 21.0211 0.355811 21.8802 1.00181 22.5263L12.4733 33.9996C13.1402 34.6665 14.016 35 14.892 35C15.7679 35 16.6437 34.6665 17.3106 33.9996L33.9918 17.3158C34.6373 16.6702 34.993 15.8118 34.9936 14.8987L35 3.34217C35.0001 3.16085 34.9282 2.98692 34.8 2.85866ZM29.0596 7.96457C28.7889 8.23532 28.429 8.38443 28.0463 8.38443C27.6634 8.38443 27.3036 8.23532 27.0329 7.96457C26.474 7.40572 26.474 6.49633 27.0329 5.93748C27.3123 5.65798 27.6792 5.51831 28.0463 5.51831C28.1845 5.51831 28.3227 5.5382 28.4562 5.57786L27.6672 6.36698C27.4003 6.63396 27.4003 7.06688 27.6672 7.33393C27.8007 7.46746 27.9757 7.53419 28.1506 7.53419C28.3255 7.53419 28.5005 7.46746 28.634 7.33393L29.4208 6.547C29.5629 7.03372 29.4427 7.5815 29.0596 7.96457Z"/>
<path d="M29.2003 13.7645L21.2338 5.79669C20.1785 4.7412 18.4612 4.74134 17.406 5.79669L4.79912 18.4056C4.28786 18.9168 4.00629 19.5966 4.00629 20.3197C4.00629 21.0428 4.28779 21.7227 4.79905 22.2339L12.7657 30.2016C13.2769 30.7129 13.9565 30.9946 14.6795 30.9946C15.4025 30.9946 16.0822 30.713 16.5934 30.2017L29.2003 17.5928C29.7116 17.0815 29.9931 16.4017 29.9931 15.6786C29.9931 14.9556 29.7116 14.2758 29.2003 13.7645ZM28.2335 16.6258L15.6266 29.2349C15.3737 29.4878 15.0373 29.6272 14.6796 29.6272C14.3219 29.6272 13.9855 29.4878 13.7325 29.2348L5.76586 21.267C5.51286 21.014 5.37354 20.6776 5.37354 20.3198C5.37347 19.9619 5.51286 19.6255 5.76586 19.3725L18.3728 6.76365C18.634 6.50247 18.9769 6.37189 19.3199 6.37189C19.6629 6.37189 20.0059 6.50254 20.267 6.76365L28.2335 14.7314C28.4865 14.9844 28.6258 15.3208 28.6258 15.6786C28.6258 16.0364 28.4865 16.3729 28.2335 16.6258Z"/>
<path d="M22.2904 13.677C22.5574 13.41 22.5574 12.9771 22.2904 12.71C22.0234 12.443 21.5907 12.443 21.3236 12.71L20.93 13.1037C19.879 12.4544 18.5304 12.5415 17.6779 13.394C17.1808 13.8912 16.9265 14.5662 16.9618 15.2949C16.9959 15.9985 17.2989 16.6702 17.8148 17.1862C17.8149 17.1863 17.8149 17.1863 17.8149 17.1864C18.3648 17.7365 18.4261 18.5701 17.9517 19.0446C17.4771 19.5191 16.6435 19.4577 16.0935 18.9077C15.5435 18.3575 15.4821 17.5238 15.9566 17.0492C16.2235 16.7822 16.2235 16.3493 15.9566 16.0823C15.6896 15.8153 15.2569 15.8153 14.9898 16.0823C14.1373 16.9348 14.0503 18.2836 14.6995 19.3349L14.2324 19.8019C13.9655 20.0689 13.9655 20.5018 14.2324 20.7689C14.3663 20.9025 14.5412 20.9693 14.7161 20.9693C14.8911 20.9693 15.066 20.9025 15.1995 20.769L15.6668 20.3016C16.1261 20.5853 16.6419 20.729 17.1486 20.729C17.8013 20.7289 18.4387 20.4915 18.9186 20.0115C19.9259 19.004 19.8647 17.3033 18.7822 16.22C18.782 16.2198 18.7819 16.2196 18.7817 16.2194C18.5065 15.9441 18.3451 15.5923 18.3275 15.2287C18.3112 14.8901 18.4238 14.582 18.6448 14.361C19.1192 13.8864 19.9526 13.9478 20.5027 14.4977C20.5028 14.4978 20.5028 14.4979 20.5028 14.4979C20.5029 14.498 20.503 14.498 20.503 14.498C21.0529 15.0482 21.1142 15.8817 20.6397 16.3563C20.3727 16.6233 20.3727 17.0562 20.6397 17.3232C20.7732 17.4568 20.9481 17.5235 21.1231 17.5235C21.298 17.5235 21.4729 17.4568 21.6064 17.3232C22.4589 16.4706 22.546 15.1218 21.8968 14.0706L22.2904 13.677Z"/>
<path d="M15.3717 25.0115L11.8607 21.4999C11.5937 21.2332 11.161 21.233 10.8939 21.4999C10.6269 21.7669 10.6269 22.1998 10.8939 22.4669L14.4049 25.9785C14.5385 26.112 14.7134 26.1788 14.8883 26.1788C15.0632 26.1788 15.2382 26.112 15.3717 25.9785C15.6386 25.7115 15.6386 25.2786 15.3717 25.0115Z"/>
<path d="M9.98793 19.627C9.86085 19.4999 9.6851 19.4266 9.5047 19.4266C9.32491 19.4266 9.14923 19.4998 9.0214 19.627C8.89425 19.7541 8.82111 19.9305 8.82111 20.111C8.82111 20.2908 8.89418 20.4672 9.0214 20.5944C9.14855 20.7216 9.32491 20.7947 9.5047 20.7947C9.68517 20.7947 9.86085 20.7216 9.98793 20.5944C10.1158 20.4665 10.1889 20.2908 10.1889 20.111C10.1889 19.9305 10.1158 19.7548 9.98793 19.627Z"/>
</symbol><symbol id="adv-watch" viewBox="0 0 35 35">
<path d="M3.84798 11.6622L2.05404 10.1904C1.07943 9.39114 1.07943 8.09017 2.05404 7.29042C3.02864 6.49094 4.61458 6.49094 5.58919 7.29042L7.50456 8.86162C9.5026 7.72007 11.7803 6.92993 14.1667 6.55075V4.51172H12.5C12.0397 4.51172 11.6667 4.2057 11.6667 3.82812V2.05078C11.6667 0.919914 12.7881 0 14.1667 0H20.8333C22.2119 0 23.3333 0.919914 23.3333 2.05078V3.82812C23.3333 4.2057 22.9603 4.51172 22.5 4.51172H20.8333V6.55075C23.2194 6.92966 25.4974 7.72007 27.4954 8.86162L29.4108 7.29042C30.3851 6.49094 31.971 6.49094 32.946 7.29042C33.9206 8.0899 33.9206 9.39087 32.946 10.1904L31.152 11.6622C33.6387 14.203 35 17.3678 35 20.6445C35 28.5601 27.1494 35 17.5 35C7.85059 35 0 28.5601 0 20.6445C0 17.3678 1.36133 14.203 3.84798 11.6622ZM4.41081 8.25706C4.08561 7.99057 3.55729 7.99084 3.23242 8.25706C2.90788 8.52356 2.90788 8.95721 3.23242 9.22371L4.95443 10.636C5.34245 10.3092 5.74935 9.99756 6.17253 9.70249L4.41081 8.25706ZM21.6667 2.05078C21.6667 1.67374 21.293 1.36719 20.8333 1.36719H14.1667C13.707 1.36719 13.3333 1.67374 13.3333 2.05078V3.14453H21.6667V2.05078ZM15.8333 4.51172V6.35368C16.9378 6.26877 18.0618 6.26877 19.1667 6.35368V4.51172H15.8333ZM31.7676 8.25706C31.4427 7.99084 30.9141 7.99057 30.5892 8.25706L28.8275 9.70249C29.2507 9.99756 29.6576 10.3092 30.0456 10.636L31.7676 9.22371C32.0921 8.95721 32.0921 8.52356 31.7676 8.25706ZM17.5 33.6328C26.2305 33.6328 33.3333 27.8062 33.3333 20.6445C33.3333 17.4853 31.9352 14.4415 29.3968 12.0732C28.6976 11.4208 27.9173 10.8248 27.0778 10.3009C24.974 8.98766 22.4837 8.12328 19.8763 7.80098C19.096 7.70512 18.2965 7.65625 17.5 7.65625C16.7034 7.65625 15.904 7.70512 15.124 7.80098C12.5163 8.12328 10.026 8.98766 7.92188 10.3009C7.08268 10.8248 6.30241 11.4208 5.60319 12.0732C3.06478 14.4415 1.66666 17.4853 1.66666 20.6445C1.66666 27.8062 8.76953 33.6328 17.5 33.6328Z"/>
<path d="M17.5 22.6953C16.1214 22.6953 15 21.7754 15 20.6445C15 19.7535 15.6966 18.9935 16.6667 18.7112V13.8086C16.6667 13.431 17.0397 13.125 17.5 13.125C17.9603 13.125 18.3334 13.431 18.3334 13.8086V18.7112C19.3034 18.9935 20 19.7535 20 20.6445C20 21.7754 18.8786 22.6953 17.5 22.6953ZM17.5 19.9609C17.0404 19.9609 16.6667 20.2675 16.6667 20.6445C16.6667 21.0216 17.0404 21.3281 17.5 21.3281C17.9597 21.3281 18.3334 21.0216 18.3334 20.6445C18.3334 20.2675 17.9597 19.9609 17.5 19.9609Z"/>
<path d="M8.62274 13.4326C8.63576 13.42 8.64878 13.4075 8.66343 13.3957C8.67905 13.3826 8.69565 13.3709 8.71225 13.3591C10.181 12.1671 11.9955 11.2851 13.9645 10.8082C14.4063 10.7014 14.8695 10.9081 14.9997 11.2702C15.1299 11.6323 14.8779 12.0125 14.4365 12.1193C12.9776 12.4729 11.6166 13.0838 10.4564 13.8996L11.0186 14.3608C11.3438 14.6278 11.3438 15.0607 11.0186 15.3277C10.8558 15.4612 10.6426 15.528 10.4291 15.528C10.2158 15.528 10.0026 15.4612 9.83986 15.3277L9.27638 14.8655C7.76857 16.3037 6.87306 18.0741 6.69858 19.9609H7.50002C7.9603 19.9609 8.33335 20.2672 8.33335 20.6445C8.33335 21.0221 7.9603 21.3281 7.50002 21.3281H6.69858C6.87306 23.2152 7.76857 24.9853 9.27638 26.4235L9.83986 25.9613C10.1654 25.6945 10.693 25.6945 11.0186 25.9613C11.3441 26.2283 11.3441 26.6612 11.0186 26.9282L10.4551 27.3904C12.2083 28.6273 14.3666 29.3619 16.6667 29.5053V28.8476C16.6667 28.47 17.0397 28.164 17.5 28.164C17.9603 28.164 18.3333 28.47 18.3333 28.8476V29.505C20.6335 29.3619 22.7917 28.6273 24.5449 27.3904L23.9815 26.9282C23.6559 26.6612 23.6559 26.2283 23.9815 25.9613C24.307 25.6945 24.8347 25.6945 25.1602 25.9613L25.7236 26.4235C27.2315 24.9853 28.127 23.2149 28.3014 21.3281H27.5C27.0397 21.3281 26.6667 21.0221 26.6667 20.6445C26.6667 20.2669 27.0397 19.9609 27.5 19.9609H28.3014C28.127 18.0741 27.2315 16.3037 25.7236 14.8655L25.1602 15.3277C24.9974 15.4612 24.7842 15.528 24.571 15.528C24.3574 15.528 24.1442 15.4612 23.9815 15.3277C23.6563 15.0607 23.6563 14.6278 23.9815 14.3608L24.5436 13.8996C23.3835 13.0836 22.0225 12.4729 20.5635 12.1193C20.1221 12.0125 19.8701 11.6323 20.0003 11.2702C20.1305 10.9081 20.5934 10.7017 21.0355 10.8082C23.0042 11.2849 24.818 12.1666 26.2865 13.3581C26.3037 13.3701 26.3207 13.3824 26.3366 13.3955C26.3509 13.4072 26.3636 13.4195 26.3766 13.4318C28.7136 15.3667 30 17.9259 30 20.6445C30 23.3628 28.7136 25.9218 26.3773 27.8564C26.3643 27.869 26.3513 27.8815 26.3366 27.8933C26.3223 27.9053 26.3073 27.9157 26.2923 27.9264C23.9336 29.8431 20.8141 30.8984 17.5 30.8984C14.1862 30.8984 11.0667 29.8434 8.70835 27.9269C8.69305 27.916 8.67775 27.9053 8.66343 27.8933C8.6491 27.8818 8.63641 27.8692 8.62339 27.8572C6.28647 25.9223 5.00002 23.3631 5.00002 20.6445C5.00002 17.9261 6.28647 15.3672 8.62274 13.4326Z"/>
<path d="M17.5 11.7578C17.04 11.7578 16.6667 11.4515 16.6667 11.0742C16.6667 10.6969 17.04 10.3906 17.5 10.3906C17.96 10.3906 18.3333 10.6969 18.3333 11.0742C18.3333 11.4515 17.96 11.7578 17.5 11.7578Z"/>
</symbol><symbol id="email" viewBox="0 0 21 20"><g fill="none">
<path d="M18.0584 0H2.94568C1.59663 0 0.5 1.441 0.5 3.2137V16.7863C0.5 18.559 1.59663 20 2.94568 20H18.0543C19.4034 20 20.5 18.559 20.5 16.7863V3.21914C20.5041 1.44644 19.4075 0 18.0584 0ZM19.3868 16.7863C19.3868 17.7488 18.7909 18.5318 18.0584 18.5318H2.94568C2.21322 18.5318 1.61732 17.7488 1.61732 16.7863V3.21914C1.61732 2.25666 2.21322 1.47363 2.94568 1.47363H18.0543C18.7868 1.47363 19.3827 2.25666 19.3827 3.21914V16.7863H19.3868Z" fill="#00B2FF"/>
<path d="M13.1133 9.83144L18.0047 4.06744C18.2323 3.79555 18.253 3.33334 18.0461 3.02883C17.8392 2.72975 17.4874 2.70256 17.2557 2.97445L10.5104 10.9299L9.19446 9.38554C9.19032 9.38011 9.18618 9.37467 9.18618 9.36923C9.15721 9.33117 9.12824 9.29854 9.09514 9.26591L3.74029 2.96901C3.50855 2.69713 3.1568 2.72431 2.94989 3.02883C2.74298 3.33334 2.76367 3.79555 2.99541 4.06744L7.94471 9.88038L3.0161 15.9435C2.79264 16.2208 2.78022 16.683 2.99127 16.9821C3.103 17.1343 3.25198 17.2159 3.40096 17.2159C3.53752 17.2159 3.67408 17.1506 3.78167 17.0201L8.78477 10.87L10.1421 12.4633C10.2497 12.5884 10.3821 12.6482 10.5145 12.6482C10.647 12.6482 10.7835 12.5829 10.887 12.4579L12.2816 10.8157L17.2557 17.0256C17.3633 17.1615 17.504 17.2268 17.6405 17.2268C17.7895 17.2268 17.9344 17.1506 18.0461 16.9984C18.2571 16.7047 18.2489 16.2371 18.0254 15.9598L13.1133 9.83144Z" fill="#00B2FF"/>
</g></symbol><symbol id="icon-close" viewBox="0 0 20 20"><g fill="white"><path d="M.293 18.291a1 1 0 101.414 1.414L10 11.413l8.292 8.292a1 1 0 101.414-1.414l-8.292-8.292 8.292-8.292A1 1 0 1018.291.293L9.999 8.585 1.707.293A1 1 0 10.293 1.707L8.585 10 .293 18.291z"/></g></symbol><symbol id="logo-desc" viewBox="0 0 105 10">
<path d="M2.56641 6.30859L4.28906 0.660156H5.80078L3.25781 7.9668C3.19922 8.12305 3.12305 8.29297 3.0293 8.47656C2.93555 8.66016 2.8125 8.83398 2.66016 8.99805C2.51172 9.16602 2.32617 9.30078 2.10352 9.40234C1.88086 9.50781 1.61133 9.56055 1.29492 9.56055C1.16992 9.56055 1.04883 9.54883 0.931641 9.52539C0.818359 9.50586 0.710938 9.48438 0.609375 9.46094L0.603516 8.38281C0.642578 8.38672 0.689453 8.39062 0.744141 8.39453C0.802734 8.39844 0.849609 8.40039 0.884766 8.40039C1.11914 8.40039 1.31445 8.37109 1.4707 8.3125C1.62695 8.25781 1.75391 8.16797 1.85156 8.04297C1.95312 7.91797 2.03906 7.75 2.10938 7.53906L2.56641 6.30859ZM1.59375 0.660156L3.09961 5.40625L3.35156 6.89453L2.37305 7.14648L0.0703125 0.660156H1.59375ZM10.377 5.28906L12.2637 0.660156H13.4883L10.8574 7H9.89648L7.27148 0.660156H8.49609L10.377 5.28906ZM8.13281 0.660156V7H6.7207V0.660156H8.13281ZM12.6211 7V0.660156H14.0391V7H12.6211ZM19.9512 3.30859V4.42188H16.6699V3.30859H19.9512ZM17.0801 0.660156V7H15.668V0.660156H17.0801ZM20.9707 0.660156V7H19.5586V0.660156H20.9707ZM23.5254 2.67578H25.3945C25.9414 2.67578 26.4062 2.76758 26.7891 2.95117C27.1719 3.13477 27.4629 3.39062 27.6621 3.71875C27.8652 4.04297 27.9668 4.41406 27.9668 4.83203C27.9668 5.14062 27.9102 5.42773 27.7969 5.69336C27.6836 5.95508 27.5156 6.18359 27.293 6.37891C27.0742 6.57422 26.8047 6.72656 26.4844 6.83594C26.168 6.94531 25.8047 7 25.3945 7H22.5879V0.660156H24.0059V5.88086H25.3945C25.6758 5.88086 25.9004 5.83203 26.0684 5.73438C26.2363 5.63672 26.3574 5.50977 26.4316 5.35352C26.5098 5.19727 26.5488 5.03125 26.5488 4.85547C26.5488 4.67578 26.5098 4.50586 26.4316 4.3457C26.3574 4.18555 26.2363 4.05469 26.0684 3.95312C25.9004 3.85156 25.6758 3.80078 25.3945 3.80078H23.5254V2.67578ZM30.4629 0.660156V7H29.0508V0.660156H30.4629ZM34.9277 7.11719C34.459 7.11719 34.0352 7.04102 33.6562 6.88867C33.2812 6.73242 32.9609 6.51562 32.6953 6.23828C32.4336 5.96094 32.2324 5.63477 32.0918 5.25977C31.9512 4.88477 31.8809 4.48047 31.8809 4.04688V3.8125C31.8809 3.31641 31.9531 2.86719 32.0977 2.46484C32.2422 2.0625 32.4434 1.71875 32.7012 1.43359C32.959 1.14453 33.2637 0.923828 33.6152 0.771484C33.9668 0.619141 34.3477 0.542969 34.7578 0.542969C35.2109 0.542969 35.6074 0.619141 35.9473 0.771484C36.2871 0.923828 36.5684 1.13867 36.791 1.41602C37.0176 1.68945 37.1855 2.01562 37.2949 2.39453C37.4082 2.77344 37.4648 3.19141 37.4648 3.64844V4.25195H32.5664V3.23828H36.0703V3.12695C36.0625 2.87305 36.0117 2.63477 35.918 2.41211C35.8281 2.18945 35.6895 2.00977 35.502 1.87305C35.3145 1.73633 35.0645 1.66797 34.752 1.66797C34.5176 1.66797 34.3086 1.71875 34.125 1.82031C33.9453 1.91797 33.7949 2.06055 33.6738 2.24805C33.5527 2.43555 33.459 2.66211 33.3926 2.92773C33.3301 3.18945 33.2988 3.48438 33.2988 3.8125V4.04688C33.2988 4.32422 33.3359 4.58203 33.4102 4.82031C33.4883 5.05469 33.6016 5.25977 33.75 5.43555C33.8984 5.61133 34.0781 5.75 34.2891 5.85156C34.5 5.94922 34.7402 5.99805 35.0098 5.99805C35.3496 5.99805 35.6523 5.92969 35.918 5.79297C36.1836 5.65625 36.4141 5.46289 36.6094 5.21289L37.3535 5.93359C37.2168 6.13281 37.0391 6.32422 36.8203 6.50781C36.6016 6.6875 36.334 6.83398 36.0176 6.94727C35.7051 7.06055 35.3418 7.11719 34.9277 7.11719ZM44.4961 0.660156V7H43.0781V0.660156H44.4961ZM46.5762 0.660156V1.77344H41.0332V0.660156H46.5762ZM49.8809 7.11719C49.4121 7.11719 48.9883 7.04102 48.6094 6.88867C48.2344 6.73242 47.9141 6.51562 47.6484 6.23828C47.3867 5.96094 47.1855 5.63477 47.0449 5.25977C46.9043 4.88477 46.834 4.48047 46.834 4.04688V3.8125C46.834 3.31641 46.9062 2.86719 47.0508 2.46484C47.1953 2.0625 47.3965 1.71875 47.6543 1.43359C47.9121 1.14453 48.2168 0.923828 48.5684 0.771484C48.9199 0.619141 49.3008 0.542969 49.7109 0.542969C50.1641 0.542969 50.5605 0.619141 50.9004 0.771484C51.2402 0.923828 51.5215 1.13867 51.7441 1.41602C51.9707 1.68945 52.1387 2.01562 52.248 2.39453C52.3613 2.77344 52.418 3.19141 52.418 3.64844V4.25195H47.5195V3.23828H51.0234V3.12695C51.0156 2.87305 50.9648 2.63477 50.8711 2.41211C50.7812 2.18945 50.6426 2.00977 50.4551 1.87305C50.2676 1.73633 50.0176 1.66797 49.7051 1.66797C49.4707 1.66797 49.2617 1.71875 49.0781 1.82031C48.8984 1.91797 48.748 2.06055 48.627 2.24805C48.5059 2.43555 48.4121 2.66211 48.3457 2.92773C48.2832 3.18945 48.252 3.48438 48.252 3.8125V4.04688C48.252 4.32422 48.2891 4.58203 48.3633 4.82031C48.4414 5.05469 48.5547 5.25977 48.7031 5.43555C48.8516 5.61133 49.0312 5.75 49.2422 5.85156C49.4531 5.94922 49.6934 5.99805 49.9629 5.99805C50.3027 5.99805 50.6055 5.92969 50.8711 5.79297C51.1367 5.65625 51.3672 5.46289 51.5625 5.21289L52.3066 5.93359C52.1699 6.13281 51.9922 6.32422 51.7734 6.50781C51.5547 6.6875 51.2871 6.83398 50.9707 6.94727C50.6582 7.06055 50.2949 7.11719 49.8809 7.11719ZM54.5977 0.660156L55.8047 2.76367L57.0352 0.660156H58.5879L56.666 3.77148L58.6641 7H57.1113L55.8223 4.80859L54.5332 7H52.9746L54.9668 3.77148L53.0508 0.660156H54.5977ZM63.8848 3.30859V4.42188H60.6035V3.30859H63.8848ZM61.0137 0.660156V7H59.6016V0.660156H61.0137ZM64.9043 0.660156V7H63.4922V0.660156H64.9043ZM66.1406 3.90039V3.76562C66.1406 3.30859 66.207 2.88477 66.3398 2.49414C66.4727 2.09961 66.6641 1.75781 66.9141 1.46875C67.168 1.17578 67.4766 0.949219 67.8398 0.789062C68.207 0.625 68.6211 0.542969 69.082 0.542969C69.5469 0.542969 69.9609 0.625 70.3242 0.789062C70.6914 0.949219 71.002 1.17578 71.2559 1.46875C71.5098 1.75781 71.7031 2.09961 71.8359 2.49414C71.9688 2.88477 72.0352 3.30859 72.0352 3.76562V3.90039C72.0352 4.35742 71.9688 4.78125 71.8359 5.17188C71.7031 5.5625 71.5098 5.9043 71.2559 6.19727C71.002 6.48633 70.6934 6.71289 70.3301 6.87695C69.9668 7.03711 69.5547 7.11719 69.0938 7.11719C68.6289 7.11719 68.2129 7.03711 67.8457 6.87695C67.4824 6.71289 67.1738 6.48633 66.9199 6.19727C66.666 5.9043 66.4727 5.5625 66.3398 5.17188C66.207 4.78125 66.1406 4.35742 66.1406 3.90039ZM67.5527 3.76562V3.90039C67.5527 4.18555 67.582 4.45508 67.6406 4.70898C67.6992 4.96289 67.791 5.18555 67.916 5.37695C68.041 5.56836 68.2012 5.71875 68.3965 5.82812C68.5918 5.9375 68.8242 5.99219 69.0938 5.99219C69.3555 5.99219 69.582 5.9375 69.7734 5.82812C69.9688 5.71875 70.1289 5.56836 70.2539 5.37695C70.3789 5.18555 70.4707 4.96289 70.5293 4.70898C70.5918 4.45508 70.623 4.18555 70.623 3.90039V3.76562C70.623 3.48438 70.5918 3.21875 70.5293 2.96875C70.4707 2.71484 70.377 2.49023 70.248 2.29492C70.123 2.09961 69.9629 1.94727 69.7676 1.83789C69.5762 1.72461 69.3477 1.66797 69.082 1.66797C68.8164 1.66797 68.5859 1.72461 68.3906 1.83789C68.1992 1.94727 68.041 2.09961 67.916 2.29492C67.791 2.49023 67.6992 2.71484 67.6406 2.96875C67.582 3.21875 67.5527 3.48438 67.5527 3.76562ZM77.3848 0.660156V1.78516H74.291V0.660156H77.3848ZM78.4922 0.660156V7H77.0801V0.660156H78.4922ZM73.9453 0.660156H75.3398L75.1699 3.79492C75.1465 4.25977 75.0996 4.66992 75.0293 5.02539C74.9629 5.37695 74.873 5.67969 74.7598 5.93359C74.6465 6.18359 74.5078 6.38672 74.3438 6.54297C74.1797 6.69922 73.9883 6.81445 73.7695 6.88867C73.5508 6.96289 73.3047 7 73.0312 7H72.5918L72.5859 5.83984L72.8086 5.82227C72.9531 5.81055 73.0781 5.77344 73.1836 5.71094C73.2891 5.64453 73.3789 5.55078 73.4531 5.42969C73.5312 5.30859 73.5938 5.15234 73.6406 4.96094C73.6914 4.76953 73.7305 4.54297 73.7578 4.28125C73.7891 4.01953 73.8125 3.71484 73.8281 3.36719L73.9453 0.660156ZM79.7227 3.90039V3.76562C79.7227 3.30859 79.7891 2.88477 79.9219 2.49414C80.0547 2.09961 80.2461 1.75781 80.4961 1.46875C80.75 1.17578 81.0586 0.949219 81.4219 0.789062C81.7891 0.625 82.2031 0.542969 82.6641 0.542969C83.1289 0.542969 83.543 0.625 83.9062 0.789062C84.2734 0.949219 84.584 1.17578 84.8379 1.46875C85.0918 1.75781 85.2852 2.09961 85.418 2.49414C85.5508 2.88477 85.6172 3.30859 85.6172 3.76562V3.90039C85.6172 4.35742 85.5508 4.78125 85.418 5.17188C85.2852 5.5625 85.0918 5.9043 84.8379 6.19727C84.584 6.48633 84.2754 6.71289 83.9121 6.87695C83.5488 7.03711 83.1367 7.11719 82.6758 7.11719C82.2109 7.11719 81.7949 7.03711 81.4277 6.87695C81.0645 6.71289 80.7559 6.48633 80.502 6.19727C80.248 5.9043 80.0547 5.5625 79.9219 5.17188C79.7891 4.78125 79.7227 4.35742 79.7227 3.90039ZM81.1348 3.76562V3.90039C81.1348 4.18555 81.1641 4.45508 81.2227 4.70898C81.2812 4.96289 81.373 5.18555 81.498 5.37695C81.623 5.56836 81.7832 5.71875 81.9785 5.82812C82.1738 5.9375 82.4062 5.99219 82.6758 5.99219C82.9375 5.99219 83.1641 5.9375 83.3555 5.82812C83.5508 5.71875 83.7109 5.56836 83.8359 5.37695C83.9609 5.18555 84.0527 4.96289 84.1113 4.70898C84.1738 4.45508 84.2051 4.18555 84.2051 3.90039V3.76562C84.2051 3.48438 84.1738 3.21875 84.1113 2.96875C84.0527 2.71484 83.959 2.49023 83.8301 2.29492C83.7051 2.09961 83.5449 1.94727 83.3496 1.83789C83.1582 1.72461 82.9297 1.66797 82.6641 1.66797C82.3984 1.66797 82.168 1.72461 81.9727 1.83789C81.7812 1.94727 81.623 2.09961 81.498 2.29492C81.373 2.49023 81.2812 2.71484 81.2227 2.96875C81.1641 3.21875 81.1348 3.48438 81.1348 3.76562ZM91.0195 0.660156V1.78516H88.2539V7H86.8418V0.660156H91.0195ZM93.2988 4.9375L95.7891 0.660156H97.2012V7H95.7891V2.7168L93.2988 7H91.8867V0.660156H93.2988V4.9375ZM100.154 4.9375L102.645 0.660156H104.057V7H102.645V2.7168L100.154 7H98.7422V0.660156H100.154V4.9375Z"/>
</symbol><symbol id="logo-img" viewBox="0 0 55 55">
<path d="M33.9167 14.6664C35.1102 14.6664 36.1185 15.4355 36.498 16.4997H46.002C46.3815 15.4355 47.3899 14.6664 48.5834 14.6664C50.0995 14.6664 51.3334 15.9002 51.3334 17.4164C51.3334 18.9325 50.0995 20.1663 48.5834 20.1663C47.3899 20.1663 46.3815 19.3973 46.002 18.333H36.4971C36.1176 19.3973 35.1093 20.1663 33.9158 20.1663C32.3996 20.1663 31.1658 18.9325 31.1658 17.4164C31.1658 15.9002 32.4005 14.6664 33.9167 14.6664ZM48.5834 18.333C49.0884 18.333 49.5 17.9224 49.5 17.4164C49.5 16.9104 49.0884 16.4997 48.5834 16.4997C48.0783 16.4997 47.6667 16.9104 47.6667 17.4164C47.6667 17.9224 48.0783 18.333 48.5834 18.333ZM33.9167 18.333C34.4218 18.333 34.8334 17.9224 34.8334 17.4164C34.8334 16.9104 34.4218 16.4997 33.9167 16.4997C33.4116 16.4997 33 16.9104 33 17.4164C33 17.9224 33.4116 18.333 33.9167 18.333Z"/>
<path d="M26.5834 20.335V14.6664C26.5834 14.4226 26.6796 14.1898 26.8519 14.0184L30.5186 10.3517C30.69 10.1794 30.9238 10.0832 31.1667 10.0832H34.0854C34.4649 9.01893 35.4732 8.24986 36.6667 8.24986C38.1829 8.24986 39.4167 9.48368 39.4167 10.9998C39.4167 12.516 38.1829 13.7498 36.6667 13.7498C35.4732 13.7498 34.4649 12.9807 34.0854 11.9165H31.5462L28.4167 15.0459V20.335C29.4809 20.7145 30.25 21.7228 30.25 22.9163C30.25 24.4324 29.0162 25.6662 27.5 25.6662C25.9839 25.6662 24.75 24.4324 24.75 22.9163C24.75 21.7228 25.5191 20.7145 26.5834 20.335ZM36.6667 11.9165C37.1718 11.9165 37.5834 11.5058 37.5834 10.9998C37.5834 10.4938 37.1718 10.0832 36.6667 10.0832C36.1616 10.0832 35.75 10.4938 35.75 10.9998C35.75 11.5058 36.1616 11.9165 36.6667 11.9165ZM27.5 23.8329C28.0051 23.8329 28.4167 23.4223 28.4167 22.9163C28.4167 22.4103 28.0051 21.9996 27.5 21.9996C26.9949 21.9996 26.5834 22.4103 26.5834 22.9163C26.5834 23.4223 26.9949 23.8329 27.5 23.8329Z"/>
<path d="M10.0833 23.8329C10.5068 23.8329 10.9028 23.9365 11.2613 24.1089L12.8333 22.5368V13.7498C12.8333 13.5059 12.9296 13.2731 13.1019 13.1017L22.2759 3.92785C22.1036 3.56944 22 3.17345 22 2.74995C22 1.23381 23.2338 0 24.75 0C26.2662 0 27.5 1.23381 27.5 2.74995C27.5 4.2661 26.2662 5.49991 24.75 5.49991C24.3265 5.49991 23.9305 5.39633 23.5721 5.224L14.6667 14.1293V22.9163C14.6667 23.1601 14.5704 23.3929 14.3981 23.5644L12.5574 25.405C12.7298 25.7634 12.8333 26.1594 12.8333 26.5829C12.8333 28.099 11.5995 29.3328 10.0833 29.3328C8.56717 29.3328 7.33334 28.099 7.33334 26.5829C7.33334 25.0667 8.56717 23.8329 10.0833 23.8329ZM24.75 3.66661C25.2551 3.66661 25.6667 3.25595 25.6667 2.74995C25.6667 2.24396 25.2551 1.8333 24.75 1.8333C24.2449 1.8333 23.8333 2.24396 23.8333 2.74995C23.8333 3.25595 24.2449 3.66661 24.75 3.66661ZM10.0833 27.4995C10.5884 27.4995 11 27.0889 11 26.5829C11 26.0769 10.5884 25.6662 10.0833 25.6662C9.57826 25.6662 9.16668 26.0769 9.16668 26.5829C9.16668 27.0889 9.57826 27.4995 10.0833 27.4995Z"/>
<path d="M1.83336 13.0018V9.16651C1.83336 8.92268 1.92961 8.68986 2.10195 8.51844L8.51861 2.10188C8.69003 1.92955 8.92378 1.8333 9.1667 1.8333H13.9187C14.2982 0.769071 15.3065 0 16.5 0C18.0162 0 19.25 1.23381 19.25 2.74995C19.25 4.2661 18.0162 5.49991 16.5 5.49991C15.3065 5.49991 14.2982 4.73084 13.9187 3.66661H9.5462L3.6667 9.54601V13.0018C4.73095 13.3813 5.50003 14.3896 5.50003 15.5831C5.50003 17.0992 4.2662 18.333 2.75003 18.333C1.23386 18.333 3.05176e-05 17.0992 3.05176e-05 15.5831C3.05176e-05 14.3896 0.769114 13.3813 1.83336 13.0018ZM16.5 3.66661C17.0051 3.66661 17.4167 3.25595 17.4167 2.74995C17.4167 2.24396 17.0051 1.8333 16.5 1.8333C15.9949 1.8333 15.5834 2.24396 15.5834 2.74995C15.5834 3.25595 15.9949 3.66661 16.5 3.66661ZM2.75003 16.4997C3.25511 16.4997 3.6667 16.0891 3.6667 15.5831C3.6667 15.0771 3.25511 14.6664 2.75003 14.6664C2.24495 14.6664 1.83336 15.0771 1.83336 15.5831C1.83336 16.0891 2.24495 16.4997 2.75003 16.4997Z"/>
<path d="M14.6658 49.6688V36.4974C13.6024 36.1179 12.8334 35.1096 12.8334 33.9161C12.8334 32.4 14.0672 31.1662 15.5834 31.1662C16.7769 31.1662 17.7852 31.9352 18.1647 32.9995H27.6687C28.0482 31.9352 29.0565 31.1662 30.25 31.1662C31.4435 31.1662 32.4519 31.9352 32.8314 32.9995H38.1205L41.5259 29.5941C41.3536 29.2357 41.25 28.8397 41.25 28.4162C41.25 26.9001 42.4839 25.6663 44 25.6663C45.5162 25.6663 46.75 26.9001 46.75 28.4162C46.75 29.9324 45.5162 31.1662 44 31.1662C43.5765 31.1662 43.1805 31.0626 42.8221 30.8903L39.1481 34.5642C38.9767 34.7365 38.7429 34.8328 38.5 34.8328H32.8314C32.4519 35.897 31.4435 36.6661 30.25 36.6661C29.0565 36.6661 28.0482 35.897 27.6687 34.8328H18.1638C17.8869 35.6092 17.2755 36.2206 16.4991 36.4974V49.6688C17.5634 50.0483 18.3324 51.0566 18.3324 52.2501C18.3324 53.7662 17.0986 55 15.5824 55C14.0663 55 12.8324 53.7662 12.8324 52.2501C12.8324 51.0566 13.6015 50.0483 14.6658 49.6688ZM44 29.3329C44.5051 29.3329 44.9167 28.9222 44.9167 28.4162C44.9167 27.9102 44.5051 27.4996 44 27.4996C43.4949 27.4996 43.0834 27.9102 43.0834 28.4162C43.0834 28.9222 43.4949 29.3329 44 29.3329ZM30.25 34.8328C30.7551 34.8328 31.1667 34.4221 31.1667 33.9161C31.1667 33.4101 30.7551 32.9995 30.25 32.9995C29.7449 32.9995 29.3334 33.4101 29.3334 33.9161C29.3334 34.4221 29.7449 34.8328 30.25 34.8328ZM15.5834 53.1658C16.0884 53.1658 16.5 52.7551 16.5 52.2492C16.5 51.7432 16.0884 51.3325 15.5834 51.3325C15.0783 51.3325 14.6667 51.7432 14.6667 52.2492C14.6667 52.7551 15.0783 53.1658 15.5834 53.1658ZM15.5834 34.8328C16.0884 34.8328 16.5 34.4221 16.5 33.9161C16.5 33.4101 16.0884 32.9995 15.5834 32.9995C15.0783 32.9995 14.6667 33.4101 14.6667 33.9161C14.6667 34.4221 15.0783 34.8328 15.5834 34.8328Z"/>
<path d="M19.25 18.5017V15.5831C19.25 15.3392 19.3463 15.1064 19.5186 14.935L30.5259 3.92785C30.3536 3.56944 30.25 3.17345 30.25 2.74995C30.25 1.23381 31.4838 0 33 0C34.1935 0 35.2018 0.769071 35.5813 1.8333H39.4167C39.9227 1.8333 40.3333 2.24305 40.3333 2.74995V5.12041L43.7388 8.52577C44.0972 8.35344 44.4932 8.24986 44.9167 8.24986C46.4328 8.24986 47.6667 9.48368 47.6667 10.9998C47.6667 12.516 46.4328 13.7498 44.9167 13.7498C43.4005 13.7498 42.1667 12.516 42.1667 10.9998C42.1667 10.5763 42.2703 10.1803 42.4426 9.82192L38.7686 6.14798C38.5963 5.97657 38.5 5.74374 38.5 5.49991V3.66661H35.5813C35.2018 4.73084 34.1935 5.49991 33 5.49991C32.5765 5.49991 32.1805 5.39633 31.8221 5.224L21.0833 15.9626V18.5017C22.1476 18.8812 22.9167 19.8895 22.9167 21.083C22.9167 22.5991 21.6828 23.8329 20.1667 23.8329C18.6505 23.8329 17.4167 22.5991 17.4167 21.083C17.4167 19.8895 18.1858 18.8812 19.25 18.5017ZM44.9167 11.9165C45.4218 11.9165 45.8333 11.5058 45.8333 10.9998C45.8333 10.4938 45.4218 10.0832 44.9167 10.0832C44.4116 10.0832 44 10.4938 44 10.9998C44 11.5058 44.4116 11.9165 44.9167 11.9165ZM33 3.66661C33.5051 3.66661 33.9167 3.25595 33.9167 2.74995C33.9167 2.24396 33.5051 1.8333 33 1.8333C32.4949 1.8333 32.0833 2.24396 32.0833 2.74995C32.0833 3.25595 32.4949 3.66661 33 3.66661ZM20.1667 21.9996C20.6718 21.9996 21.0833 21.589 21.0833 21.083C21.0833 20.577 20.6718 20.1663 20.1667 20.1663C19.6616 20.1663 19.25 20.577 19.25 21.083C19.25 21.589 19.6616 21.9996 20.1667 21.9996Z"/>
<path d="M22 25.6662C23.1935 25.6662 24.2018 26.4353 24.5813 27.4995H35.3705L40.6019 22.2682C40.7733 22.0959 41.0071 21.9996 41.25 21.9996H50.9538L53.1667 19.7868V12.296L46.0946 5.224C45.7362 5.39633 45.3402 5.49991 44.9167 5.49991C43.4005 5.49991 42.1667 4.2661 42.1667 2.74995C42.1667 1.23381 43.4005 0 44.9167 0C46.4328 0 47.6667 1.23381 47.6667 2.74995C47.6667 3.17345 47.5631 3.56944 47.3907 3.92785L54.7314 11.2684C54.9037 11.4398 55 11.6726 55 11.9165V20.1663C55 20.4102 54.9037 20.643 54.7314 20.8144L51.9814 23.5644C51.81 23.7367 51.5762 23.8329 51.3333 23.8329H41.6295L36.3981 29.0643C36.2267 29.2366 35.9929 29.3328 35.75 29.3328H24.5813C24.2018 30.3971 23.1935 31.1661 22 31.1661C20.4838 31.1661 19.25 29.9323 19.25 28.4162C19.25 26.9001 20.4838 25.6662 22 25.6662ZM44.9167 1.8333C44.4116 1.8333 44 2.24396 44 2.74995C44 3.25595 44.4116 3.66661 44.9167 3.66661C45.4217 3.66661 45.8333 3.25595 45.8333 2.74995C45.8333 2.24396 45.4217 1.8333 44.9167 1.8333ZM22 29.3328C22.5051 29.3328 22.9167 28.9222 22.9167 28.4162C22.9167 27.9102 22.5051 27.4995 22 27.4995C21.4949 27.4995 21.0833 27.9102 21.0833 28.4162C21.0833 28.9222 21.4949 29.3328 22 29.3328Z"/>
<path d="M2.75001 21.9996C3.17351 21.9996 3.56951 22.1032 3.92793 22.2755L7.33334 18.8702V13.5811C6.26909 13.2016 5.50001 12.1933 5.50001 10.9998C5.50001 9.48368 6.73384 8.24986 8.25001 8.24986C9.76618 8.24986 11 9.48368 11 10.9998C11 12.1933 10.2309 13.2016 9.16668 13.5811V19.2497C9.16668 19.4935 9.07043 19.7263 8.89809 19.8978L5.2241 23.5717C5.39643 23.9301 5.50001 24.3261 5.50001 24.7496C5.50001 25.9431 4.73093 26.9514 3.66668 27.3309V28.0367L10.7314 35.1013C10.9038 35.2727 11 35.5056 11 35.7494V36.8347C12.0643 37.2142 12.8333 38.2225 12.8333 39.416C12.8333 40.6095 12.0643 41.6178 11 41.9973V44.1688C12.0643 44.5483 12.8333 45.5567 12.8333 46.7501C12.8333 48.2663 11.5995 49.5001 10.0833 49.5001C8.56718 49.5001 7.33334 48.2663 7.33334 46.7501C7.33334 45.5567 8.10243 44.5483 9.16668 44.1688V41.9973C8.10243 41.6178 7.33334 40.6095 7.33334 39.416C7.33334 38.2225 8.10243 37.2142 9.16668 36.8347V36.1289L2.10193 29.0643C1.92959 28.8929 1.83334 28.66 1.83334 28.4162V27.3309C0.769094 26.9514 1.14441e-05 25.9431 1.14441e-05 24.7496C1.14441e-05 23.2334 1.23384 21.9996 2.75001 21.9996ZM8.25001 11.9165C8.75509 11.9165 9.16668 11.5058 9.16668 10.9998C9.16668 10.4938 8.75509 10.0832 8.25001 10.0832C7.74493 10.0832 7.33334 10.4938 7.33334 10.9998C7.33334 11.5058 7.74493 11.9165 8.25001 11.9165ZM10.0833 47.6659C10.5884 47.6659 11 47.2552 11 46.7492C11 46.2432 10.5884 45.8326 10.0833 45.8326C9.57826 45.8326 9.16668 46.2432 9.16668 46.7492C9.16668 47.2552 9.57826 47.6659 10.0833 47.6659ZM10.0833 40.3327C10.5884 40.3327 11 39.922 11 39.416C11 38.91 10.5884 38.4994 10.0833 38.4994C9.57826 38.4994 9.16668 38.91 9.16668 39.416C9.16668 39.922 9.57826 40.3327 10.0833 40.3327ZM2.75001 25.6662C3.25509 25.6662 3.66668 25.2556 3.66668 24.7496C3.66668 24.2436 3.25509 23.8329 2.75001 23.8329C2.24493 23.8329 1.83334 24.2436 1.83334 24.7496C1.83334 25.2556 2.24493 25.6662 2.75001 25.6662Z"/>
</symbol><symbol id="logo-title" viewBox="0 0 133 20">
<path d="M8.95996 14.3247C8.95996 14.0073 8.93148 13.7184 8.87451 13.458C8.81755 13.1976 8.69548 12.9575 8.5083 12.7378C8.32926 12.5181 8.06478 12.2983 7.71484 12.0786C7.37305 11.8589 6.92546 11.631 6.37207 11.395C5.71289 11.1183 5.07406 10.8254 4.45557 10.5161C3.83708 10.1987 3.27962 9.83252 2.7832 9.41748C2.28678 9.00244 1.89209 8.51416 1.59912 7.95264C1.31429 7.38298 1.17188 6.71566 1.17188 5.95068C1.17188 5.20199 1.30615 4.52246 1.57471 3.91211C1.8514 3.30176 2.24202 2.78092 2.74658 2.34961C3.25114 1.91016 3.84115 1.57243 4.5166 1.33643C5.2002 1.10042 5.9611 0.982422 6.79932 0.982422C7.93864 0.982422 8.92334 1.21842 9.75342 1.69043C10.5916 2.16243 11.2386 2.80941 11.6943 3.63135C12.1582 4.45329 12.3901 5.3973 12.3901 6.46338H8.82568C8.82568 5.95882 8.75244 5.5153 8.60596 5.13281C8.46761 4.74219 8.24382 4.43701 7.93457 4.21729C7.62533 3.99756 7.22656 3.8877 6.73828 3.8877C6.28255 3.8877 5.90413 3.98128 5.60303 4.16846C5.31006 4.34749 5.09033 4.5957 4.94385 4.91309C4.8055 5.22233 4.73633 5.57227 4.73633 5.96289C4.73633 6.25586 4.8055 6.52035 4.94385 6.75635C5.09033 6.98421 5.28971 7.19173 5.54199 7.37891C5.79427 7.55794 6.09131 7.73291 6.43311 7.90381C6.78304 8.07471 7.16553 8.24154 7.58057 8.4043C8.38623 8.72168 9.09831 9.07161 9.7168 9.4541C10.3353 9.82845 10.8521 10.2516 11.2671 10.7236C11.6821 11.1875 11.9954 11.7124 12.207 12.2983C12.4186 12.8843 12.5244 13.5516 12.5244 14.3003C12.5244 15.0409 12.3942 15.7163 12.1338 16.3267C11.8815 16.9289 11.5112 17.4497 11.0229 17.8892C10.5347 18.3205 9.94466 18.6541 9.25293 18.8901C8.56934 19.1261 7.80436 19.2441 6.95801 19.2441C6.13607 19.2441 5.35889 19.1302 4.62646 18.9023C3.89404 18.6663 3.24707 18.3123 2.68555 17.8403C2.13216 17.3602 1.69678 16.7539 1.37939 16.0215C1.06201 15.2809 0.90332 14.4061 0.90332 13.397H4.47998C4.47998 13.9341 4.53288 14.3939 4.63867 14.7764C4.74447 15.1507 4.90723 15.4518 5.12695 15.6797C5.34668 15.8994 5.61523 16.0662 5.93262 16.1802C6.25814 16.286 6.62842 16.3389 7.04346 16.3389C7.51546 16.3389 7.88981 16.2493 8.1665 16.0703C8.45133 15.8913 8.65479 15.6512 8.77686 15.3501C8.89893 15.049 8.95996 14.7072 8.95996 14.3247ZM18.2129 8.52637V19H14.7827V5.79199H18.0054L18.2129 8.52637ZM17.7246 11.9443L16.7847 11.9688C16.7684 11.041 16.8498 10.1865 17.0288 9.40527C17.2078 8.62402 17.4764 7.9445 17.8345 7.3667C18.2007 6.7889 18.6605 6.34131 19.2139 6.02393C19.7673 5.70654 20.4142 5.54785 21.1548 5.54785C21.6349 5.54785 22.0785 5.63737 22.4854 5.81641C22.8923 5.9873 23.2463 6.25993 23.5474 6.63428C23.8485 7.00049 24.0804 7.48063 24.2432 8.07471C24.4059 8.66064 24.4873 9.36458 24.4873 10.1865V19H21.0693V10.6016C21.0693 10.0156 21.0124 9.56803 20.8984 9.25879C20.7845 8.94141 20.6217 8.72168 20.4102 8.59961C20.1986 8.4694 19.9382 8.4043 19.6289 8.4043C19.3034 8.4043 19.0186 8.49382 18.7744 8.67285C18.5303 8.85189 18.3309 9.10417 18.1763 9.42969C18.0298 9.74707 17.9159 10.1214 17.8345 10.5527C17.7612 10.984 17.7246 11.4479 17.7246 11.9443ZM24.1577 11.6025L22.9248 11.7612C22.9085 10.8905 22.9858 10.0807 23.1567 9.33203C23.3276 8.5752 23.5921 7.91602 23.9502 7.35449C24.3083 6.78483 24.7559 6.34131 25.293 6.02393C25.8382 5.70654 26.4689 5.54785 27.1851 5.54785C27.7222 5.54785 28.2104 5.63737 28.6499 5.81641C29.0894 5.99544 29.4637 6.28434 29.7729 6.68311C30.0903 7.07373 30.3304 7.59049 30.4932 8.2334C30.6641 8.8763 30.7495 9.65755 30.7495 10.5771V19H27.3193V10.5894C27.3193 9.99528 27.2624 9.53955 27.1484 9.22217C27.0345 8.90479 26.8717 8.68913 26.6602 8.5752C26.4486 8.46126 26.1963 8.4043 25.9033 8.4043C25.6104 8.4043 25.354 8.48568 25.1343 8.64844C24.9227 8.8112 24.7437 9.03906 24.5972 9.33203C24.4507 9.61686 24.3408 9.95459 24.2676 10.3452C24.1943 10.7277 24.1577 11.1468 24.1577 11.6025ZM39.1479 15.9604V9.85693C39.1479 9.45817 39.0991 9.14079 39.0015 8.90479C38.9119 8.66878 38.7736 8.49788 38.5864 8.39209C38.4074 8.27816 38.1877 8.22119 37.9272 8.22119C37.6343 8.22119 37.3901 8.28223 37.1948 8.4043C36.9995 8.52637 36.853 8.70133 36.7554 8.9292C36.6659 9.15706 36.6211 9.42969 36.6211 9.74707H33.1909C33.1909 9.17741 33.3008 8.6403 33.5205 8.13574C33.7402 7.62305 34.0617 7.17546 34.4849 6.79297C34.9162 6.40234 35.4289 6.09717 36.0229 5.87744C36.617 5.65771 37.2843 5.54785 38.0249 5.54785C38.9038 5.54785 39.6851 5.6984 40.3687 5.99951C41.0522 6.29248 41.5934 6.76042 41.9922 7.40332C42.391 8.04622 42.5903 8.88037 42.5903 9.90576V15.7896C42.5903 16.5301 42.627 17.1323 42.7002 17.5962C42.7816 18.0601 42.8996 18.4588 43.0542 18.7925V19H39.6118C39.4572 18.6338 39.3392 18.1781 39.2578 17.6328C39.1846 17.0794 39.1479 16.522 39.1479 15.9604ZM39.563 10.9312L39.5752 12.9819H38.3179C37.9924 12.9819 37.7075 13.0348 37.4634 13.1406C37.2274 13.2464 37.028 13.397 36.8652 13.5923C36.7025 13.7795 36.5804 13.9992 36.499 14.2515C36.4258 14.5037 36.3892 14.7723 36.3892 15.0571C36.3892 15.3745 36.4339 15.6431 36.5234 15.8628C36.613 16.0825 36.7472 16.2493 36.9263 16.3633C37.1053 16.4772 37.3169 16.5342 37.561 16.5342C37.9354 16.5342 38.2609 16.4569 38.5376 16.3022C38.8143 16.1476 39.0177 15.9604 39.1479 15.7407C39.2863 15.521 39.3311 15.3175 39.2822 15.1304L40.0635 16.4609C39.9658 16.762 39.8315 17.0754 39.6606 17.4009C39.4979 17.7264 39.2904 18.0275 39.0381 18.3042C38.7858 18.5809 38.4725 18.8088 38.0981 18.9878C37.7319 19.1587 37.2965 19.2441 36.792 19.2441C36.084 19.2441 35.437 19.0814 34.8511 18.7559C34.2651 18.4303 33.8013 17.9746 33.4595 17.3887C33.1258 16.8027 32.959 16.1069 32.959 15.3013C32.959 14.634 33.0648 14.0317 33.2764 13.4946C33.4961 12.9494 33.8216 12.4896 34.2529 12.1152C34.6842 11.7327 35.2295 11.4398 35.8887 11.2363C36.5479 11.0329 37.321 10.9312 38.208 10.9312H39.563ZM48.5352 8.73389V19H45.1172V5.79199H48.3398L48.5352 8.73389ZM51.6479 5.69434L51.5991 9.1001C51.4445 9.06755 51.2573 9.04313 51.0376 9.02686C50.826 9.01058 50.6388 9.00244 50.4761 9.00244C50.0936 9.00244 49.7681 9.06348 49.4995 9.18555C49.231 9.29948 49.0072 9.47445 48.8281 9.71045C48.6572 9.93831 48.527 10.2231 48.4375 10.5649C48.348 10.9067 48.2951 11.2933 48.2788 11.7246L47.6318 11.4805C47.6318 10.6178 47.6969 9.82845 47.8271 9.1123C47.9655 8.38802 48.1689 7.76139 48.4375 7.23242C48.7061 6.69531 49.0275 6.28027 49.4019 5.9873C49.7843 5.69434 50.2157 5.54785 50.6958 5.54785C50.8586 5.54785 51.0295 5.56413 51.2085 5.59668C51.3957 5.62109 51.5422 5.65365 51.6479 5.69434ZM59.7656 5.79199V8.36768H53.0273V5.79199H59.7656ZM54.5776 2.53271H57.9834V14.9717C57.9834 15.3379 58.02 15.6187 58.0933 15.814C58.1665 16.0093 58.2764 16.1476 58.4229 16.229C58.5775 16.3022 58.7809 16.3389 59.0332 16.3389C59.2041 16.3389 59.3628 16.3307 59.5093 16.3145C59.6558 16.29 59.7656 16.2656 59.8389 16.2412V18.9146C59.5703 19.0203 59.2855 19.1017 58.9844 19.1587C58.6914 19.2157 58.3415 19.2441 57.9346 19.2441C57.251 19.2441 56.6569 19.1139 56.1523 18.8535C55.6559 18.5931 55.2694 18.1781 54.9927 17.6084C54.716 17.0306 54.5776 16.2738 54.5776 15.3379V2.53271ZM72.2412 19H69.104L69.1284 16.0459H72.2412C73.1038 16.0459 73.7752 15.8913 74.2554 15.582C74.7355 15.2728 75.0732 14.7845 75.2686 14.1172C75.472 13.4499 75.5737 12.575 75.5737 11.4927V8.72168C75.5737 7.89974 75.5208 7.20394 75.415 6.63428C75.3092 6.05648 75.1302 5.59261 74.8779 5.24268C74.6257 4.8846 74.2879 4.62012 73.8647 4.44922C73.4416 4.27832 72.9167 4.19287 72.29 4.19287H69.043V1.22656H72.29C73.3154 1.22656 74.2472 1.39339 75.0854 1.72705C75.9237 2.06071 76.6439 2.54899 77.2461 3.19189C77.8483 3.82666 78.3122 4.61198 78.6377 5.54785C78.9632 6.48372 79.126 7.5498 79.126 8.74609V11.4927C79.126 12.6971 78.9632 13.7632 78.6377 14.6909C78.3122 15.6187 77.8483 16.404 77.2461 17.0469C76.652 17.6816 75.9318 18.1659 75.0854 18.4995C74.2391 18.8332 73.291 19 72.2412 19ZM71.1792 1.22656V19H67.6025V1.22656H71.1792ZM86.8896 19.2441C85.9863 19.2441 85.1847 19.1058 84.4849 18.8291C83.7931 18.5524 83.2072 18.1536 82.7271 17.6328C82.2469 17.1038 81.8807 16.465 81.6284 15.7163C81.3761 14.9676 81.25 14.1131 81.25 13.1528V12.0664C81.25 10.9922 81.3721 10.0522 81.6162 9.24658C81.8604 8.43278 82.2062 7.74919 82.6538 7.1958C83.1014 6.64242 83.6507 6.23145 84.3018 5.96289C84.9609 5.6862 85.7056 5.54785 86.5356 5.54785C87.3657 5.54785 88.0941 5.6862 88.7207 5.96289C89.3555 6.23145 89.8804 6.63835 90.2954 7.18359C90.7104 7.7207 91.0238 8.38802 91.2354 9.18555C91.4469 9.98307 91.5527 10.9108 91.5527 11.9688V13.5312H82.7026V11.1265H88.1958V10.8213C88.1958 10.2842 88.1388 9.83659 88.0249 9.47852C87.911 9.1123 87.7319 8.83968 87.4878 8.66064C87.2437 8.48161 86.9181 8.39209 86.5112 8.39209C86.1694 8.39209 85.8805 8.46126 85.6445 8.59961C85.4085 8.73796 85.2214 8.95361 85.083 9.24658C84.9447 9.53955 84.8429 9.92204 84.7778 10.394C84.7127 10.8579 84.6802 11.4154 84.6802 12.0664V13.1528C84.6802 13.7632 84.7331 14.2759 84.8389 14.6909C84.9447 15.0978 85.0993 15.4315 85.3027 15.6919C85.5143 15.9442 85.7707 16.1273 86.0718 16.2412C86.3729 16.347 86.7228 16.3999 87.1216 16.3999C87.7238 16.3999 88.265 16.2941 88.7451 16.0825C89.2334 15.8628 89.6484 15.5658 89.9902 15.1914L91.3574 17.2666C91.1214 17.5758 90.7959 17.8851 90.3809 18.1943C89.9658 18.5036 89.4694 18.7559 88.8916 18.9512C88.3138 19.1465 87.6465 19.2441 86.8896 19.2441ZM97.2534 16.3633L99.3774 5.79199H102.942L99.3164 19H97.1802L97.2534 16.3633ZM95.9961 5.79199L98.1567 16.3755L98.1934 19H96.0449L92.4194 5.79199H95.9961ZM108.179 5.79199V19H104.749V5.79199H108.179ZM104.59 2.37402C104.59 1.84505 104.757 1.40967 105.09 1.06787C105.432 0.717936 105.888 0.542969 106.458 0.542969C107.035 0.542969 107.491 0.717936 107.825 1.06787C108.158 1.40967 108.325 1.84505 108.325 2.37402C108.325 2.89486 108.154 3.33024 107.812 3.68018C107.479 4.02197 107.031 4.19287 106.47 4.19287C105.892 4.19287 105.432 4.02197 105.09 3.68018C104.757 3.33024 104.59 2.89486 104.59 2.37402ZM115.662 16.3999C115.979 16.3999 116.252 16.3348 116.479 16.2046C116.715 16.0744 116.895 15.8628 117.017 15.5698C117.139 15.2769 117.204 14.8984 117.212 14.4346H120.422C120.422 15.4274 120.211 16.286 119.788 17.0103C119.373 17.7264 118.811 18.2798 118.103 18.6704C117.403 19.0529 116.61 19.2441 115.723 19.2441C114.836 19.2441 114.062 19.1017 113.403 18.8169C112.744 18.5321 112.199 18.117 111.768 17.5718C111.344 17.0265 111.023 16.3633 110.803 15.582C110.592 14.7926 110.486 13.8893 110.486 12.8721V11.9077C110.486 10.9067 110.592 10.0116 110.803 9.22217C111.023 8.43278 111.344 7.76546 111.768 7.22021C112.199 6.67497 112.74 6.25993 113.391 5.9751C114.05 5.69027 114.823 5.54785 115.71 5.54785C116.663 5.54785 117.489 5.74723 118.188 6.146C118.888 6.53662 119.434 7.11442 119.824 7.87939C120.223 8.64437 120.422 9.58838 120.422 10.7114H117.212C117.204 10.2069 117.143 9.78776 117.029 9.4541C116.923 9.1123 116.756 8.85189 116.528 8.67285C116.309 8.48568 116.016 8.39209 115.649 8.39209C115.267 8.39209 114.958 8.47347 114.722 8.63623C114.494 8.79085 114.319 9.01872 114.197 9.31982C114.083 9.61279 114.006 9.979 113.965 10.4185C113.924 10.8579 113.904 11.3543 113.904 11.9077V12.8721C113.904 13.4661 113.92 13.9829 113.953 14.4224C113.993 14.8537 114.071 15.2199 114.185 15.521C114.307 15.814 114.482 16.0337 114.709 16.1802C114.945 16.3267 115.263 16.3999 115.662 16.3999ZM127.71 19.2441C126.807 19.2441 126.005 19.1058 125.305 18.8291C124.613 18.5524 124.028 18.1536 123.547 17.6328C123.067 17.1038 122.701 16.465 122.449 15.7163C122.196 14.9676 122.07 14.1131 122.07 13.1528V12.0664C122.07 10.9922 122.192 10.0522 122.437 9.24658C122.681 8.43278 123.027 7.74919 123.474 7.1958C123.922 6.64242 124.471 6.23145 125.122 5.96289C125.781 5.6862 126.526 5.54785 127.356 5.54785C128.186 5.54785 128.914 5.6862 129.541 5.96289C130.176 6.23145 130.701 6.63835 131.116 7.18359C131.531 7.7207 131.844 8.38802 132.056 9.18555C132.267 9.98307 132.373 10.9108 132.373 11.9688V13.5312H123.523V11.1265H129.016V10.8213C129.016 10.2842 128.959 9.83659 128.845 9.47852C128.731 9.1123 128.552 8.83968 128.308 8.66064C128.064 8.48161 127.738 8.39209 127.332 8.39209C126.99 8.39209 126.701 8.46126 126.465 8.59961C126.229 8.73796 126.042 8.95361 125.903 9.24658C125.765 9.53955 125.663 9.92204 125.598 10.394C125.533 10.8579 125.5 11.4154 125.5 12.0664V13.1528C125.5 13.7632 125.553 14.2759 125.659 14.6909C125.765 15.0978 125.92 15.4315 126.123 15.6919C126.335 15.9442 126.591 16.1273 126.892 16.2412C127.193 16.347 127.543 16.3999 127.942 16.3999C128.544 16.3999 129.085 16.2941 129.565 16.0825C130.054 15.8628 130.469 15.5658 130.811 15.1914L132.178 17.2666C131.942 17.5758 131.616 17.8851 131.201 18.1943C130.786 18.5036 130.29 18.7559 129.712 18.9512C129.134 19.1465 128.467 19.2441 127.71 19.2441Z"/>
</symbol><symbol id="ok" viewBox="0 0 30 30">
<path d="M15.1711 12.6428C16.3282 12.6428 17.2282 11.6785 17.2068 10.6285C17.2282 9.57849 16.3496 8.59277 15.1925 8.59277C14.0782 8.59277 13.1568 9.49277 13.1568 10.6071C13.1568 11.7213 14.0568 12.6428 15.1711 12.6428Z"/>
<path d="M15 0C6.72856 0 0 6.72857 0 15C0 23.2929 6.72856 30 15 30C23.2928 30 29.9999 23.2714 29.9999 15C30.0214 6.72857 23.2928 0 15 0ZM15.2143 5.67857C17.9143 5.67857 20.1428 7.90714 20.1214 10.6286C20.1214 13.3714 17.8714 15.5786 15.1285 15.5357C12.4285 15.4929 10.2643 13.2857 10.2643 10.6071C10.2643 7.88571 12.4714 5.67857 15.2143 5.67857ZM20.7214 17.25C20.7214 17.2929 20.7 17.3143 20.7 17.3571C20.6357 17.7857 20.4214 18.1286 20.0571 18.3643C19.8214 18.5143 19.5643 18.6643 19.3071 18.7929C18.6643 19.1143 17.9785 19.3714 17.2714 19.5429C17.1857 19.5643 17.1857 19.5643 17.25 19.6286C17.6357 20.0143 18.0428 20.4214 18.4285 20.8071C18.9214 21.3 19.4357 21.8143 19.9285 22.3071C20.6357 23.0143 20.4428 24.1929 19.5428 24.6214C19.3928 24.7071 19.2214 24.7286 19.05 24.7714C18.9643 24.7714 18.8571 24.7714 18.7714 24.7714C18.75 24.7714 18.7285 24.7714 18.7285 24.75C18.3857 24.7071 18.1071 24.5357 17.85 24.3C16.9928 23.4429 16.1143 22.5643 15.2571 21.7071C15.1928 21.6429 15.1928 21.6429 15.1285 21.7071C14.25 22.5857 13.3928 23.4429 12.5143 24.3214C12.3643 24.4714 12.2143 24.5786 12.0214 24.6643C11.8928 24.7286 11.7428 24.75 11.6143 24.7714C11.5286 24.7714 11.4428 24.7714 11.3357 24.7714C11.2928 24.7714 11.2714 24.75 11.2286 24.75C10.65 24.6429 10.2643 24.3214 10.0928 23.7643C9.92141 23.2071 10.05 22.7143 10.4571 22.3071C10.8214 21.9429 11.1643 21.6 11.5286 21.2357C12.0643 20.7 12.6 20.1643 13.1143 19.65C13.1785 19.5857 13.1785 19.5857 13.0928 19.5643C13.0714 19.5643 13.0285 19.5429 13.0071 19.5429C12.0428 19.3071 11.1643 18.9214 10.3286 18.4071C9.8357 18.0857 9.59998 17.6143 9.66427 17.0357C9.77141 15.9643 10.9714 15.3857 11.8714 15.9643C12.0428 16.0714 12.1928 16.1571 12.3857 16.2429C13.3714 16.7357 14.4214 16.95 15.5143 16.8857C16.05 16.8643 16.5857 16.7571 17.1214 16.5857C17.6357 16.4143 18.0857 16.1786 18.5571 15.9214C19.3285 15.4714 20.3357 15.8357 20.6357 16.6714C20.6785 16.8 20.7 16.9071 20.7214 17.0357C20.7214 17.1 20.7214 17.1643 20.7214 17.25Z"/>
</symbol><symbol id="phone-call" viewBox="0 0 21 20"><g fill="none">
<path d="M16.3147 12.3893C15.9047 11.9629 15.4101 11.735 14.8859 11.735C14.366 11.735 13.8672 11.9587 13.4402 12.3851L12.1044 13.7147C11.9945 13.6556 11.8846 13.6007 11.7789 13.5459C11.6267 13.4699 11.483 13.3981 11.3604 13.3222C10.1091 12.5286 8.97196 11.4944 7.88132 10.1563C7.35291 9.48936 6.99782 8.92795 6.73995 8.35809C7.08659 8.04151 7.40786 7.71226 7.72068 7.39567C7.83905 7.27748 7.95741 7.15507 8.07578 7.03688C8.9635 6.15044 8.9635 5.00229 8.07578 4.11585L6.92173 2.96348C6.79068 2.83262 6.65541 2.69755 6.52859 2.56247C6.27495 2.30076 6.00863 2.03061 5.73386 1.77734C5.32381 1.37211 4.83345 1.15683 4.31772 1.15683C3.80199 1.15683 3.30317 1.37211 2.88045 1.77734C2.87622 1.78156 2.87622 1.78156 2.87199 1.78578L1.43471 3.23363C0.893623 3.77394 0.585031 4.43243 0.517395 5.19646C0.41594 6.42903 0.779486 7.57718 1.05849 8.32854C1.74331 10.1732 2.76631 11.8827 4.29236 13.7147C6.14391 15.9224 8.37168 17.6657 10.9165 18.8941C11.8888 19.3542 13.1866 19.8987 14.6365 19.9916C14.7253 19.9958 14.8183 20 14.9028 20C15.8793 20 16.6994 19.6496 17.342 18.9532C17.3462 18.9447 17.3547 18.9405 17.3589 18.932C17.5787 18.6661 17.8323 18.4255 18.0987 18.168C18.2804 17.995 18.4664 17.8134 18.6482 17.6235C19.0667 17.1887 19.2865 16.6822 19.2865 16.163C19.2865 15.6396 19.0625 15.1372 18.6355 14.7151L16.3147 12.3893ZM17.8281 16.8341C17.8239 16.8341 17.8239 16.8384 17.8281 16.8341C17.6633 17.0114 17.4942 17.1718 17.3124 17.3491C17.0376 17.6108 16.7586 17.8852 16.4965 18.1933C16.0696 18.6492 15.5665 18.8645 14.9071 18.8645C14.8437 18.8645 14.776 18.8645 14.7126 18.8603C13.4571 18.7801 12.2904 18.2904 11.4153 17.8725C9.02269 16.7159 6.92173 15.0739 5.17586 12.9929C3.73436 11.258 2.77054 9.65398 2.13222 7.93176C1.73908 6.88069 1.59535 6.06179 1.65876 5.28932C1.70103 4.79545 1.89126 4.386 2.24213 4.03565L3.68363 2.59624C3.89077 2.40207 4.11058 2.29654 4.32618 2.29654C4.59249 2.29654 4.80809 2.45694 4.94336 2.59202C4.94759 2.59624 4.95181 2.60046 4.95604 2.60468C5.2139 2.84529 5.45909 3.09433 5.71695 3.36026C5.848 3.49534 5.98327 3.63042 6.11854 3.76971L7.27259 4.92209C7.72068 5.36953 7.72068 5.7832 7.27259 6.23064C7.15 6.35305 7.03164 6.47546 6.90905 6.59366C6.55395 6.95667 6.21577 7.29437 5.848 7.62361C5.83954 7.63206 5.83109 7.63628 5.82686 7.64472C5.46332 8.00774 5.53095 8.36231 5.60704 8.60292C5.61127 8.61558 5.6155 8.62824 5.61972 8.64091C5.91986 9.36694 6.34259 10.0508 6.98514 10.8654L6.98936 10.8697C8.15609 12.3049 9.38623 13.4235 10.7432 14.2803C10.9165 14.3901 11.0941 14.4787 11.2631 14.5632C11.4153 14.6391 11.5591 14.7109 11.6816 14.7869C11.6986 14.7953 11.7155 14.808 11.7324 14.8164C11.8761 14.8882 12.0114 14.922 12.1509 14.922C12.5017 14.922 12.7216 14.7025 12.7934 14.6307L14.2392 13.1871C14.3829 13.0436 14.6112 12.8705 14.8775 12.8705C15.1396 12.8705 15.3552 13.0351 15.4862 13.1786C15.4904 13.1829 15.4904 13.1829 15.4947 13.1871L17.8239 15.5129C18.2593 15.9435 18.2593 16.3867 17.8281 16.8341Z" fill="#00B2FF"/>
<path d="M11.3095 4.75747C12.4171 4.9432 13.4232 5.46662 14.2264 6.26863C15.0295 7.07065 15.5495 8.07528 15.7397 9.18122C15.7862 9.45981 16.0272 9.65399 16.3019 9.65399C16.3358 9.65399 16.3654 9.64977 16.3992 9.64554C16.712 9.59489 16.9191 9.29941 16.8684 8.98705C16.6401 7.64895 16.006 6.42904 15.038 5.4624C14.0699 4.49576 12.8483 3.86258 11.5082 3.63464C11.1954 3.58399 10.9037 3.79083 10.8488 4.09897C10.7938 4.40711 10.9967 4.70681 11.3095 4.75747Z" fill="#00B2FF"/>
<path d="M20.4913 8.82242C20.1151 6.61899 19.0752 4.61395 17.4773 3.01836C15.8794 1.42277 13.8714 0.384369 11.6648 0.00868773C11.3562 -0.0461871 11.0645 0.16487 11.0095 0.473013C10.9588 0.785377 11.1659 1.07664 11.4788 1.13151C13.4487 1.46498 15.2453 2.39785 16.6741 3.82038C18.1029 5.24712 19.0329 7.0411 19.3669 9.00815C19.4134 9.28675 19.6543 9.48092 19.9291 9.48092C19.9629 9.48092 19.9925 9.4767 20.0263 9.47248C20.3349 9.42605 20.5463 9.13057 20.4913 8.82242Z" fill="#00B2FF"/>
</g></symbol><symbol id="pinterest" viewBox="0 0 30 30">
<path d="M14.9999 0C23.2847 0 30 6.71625 30 15.0001C30 23.2848 23.2847 30 14.9999 30C6.71522 30 0 23.2847 0 15.0001C0 6.71625 6.71532 0 14.9999 0Z"/>
<path d="M15 5C9.4823 5 5 9.4823 5 15C5 20.5177 9.4823 25 15 25C20.5177 25 25 20.5177 25 15C25 9.4823 20.5177 5 15 5ZM15 5.86957C20.0477 5.86957 24.1304 9.95225 24.1304 15C24.1304 20.0477 20.0477 24.1304 15 24.1304C14.0767 24.1304 13.186 23.9922 12.3463 23.7381C12.7203 23.1128 13.2032 22.219 13.395 21.481C13.509 21.0434 13.9776 19.2587 13.9776 19.2587C14.2821 19.84 15.1719 20.332 16.1192 20.332C18.9383 20.332 20.9706 17.7394 20.9706 14.5177C20.9706 11.4289 18.4502 9.11855 15.2072 9.11855C11.1725 9.11855 9.03108 11.8264 9.03108 14.775C9.03108 16.1462 9.7604 17.8531 10.9282 18.3967C11.105 18.4791 11.2 18.4434 11.2407 18.2719C11.2719 18.1418 11.4297 17.5073 11.5005 17.2121C11.5232 17.1179 11.5122 17.0365 11.436 16.9438C11.0495 16.475 10.7396 15.6138 10.7396 14.8106C10.7396 12.7487 12.3006 10.7532 14.9601 10.7532C17.2564 10.7532 18.8646 12.3186 18.8646 14.5567C18.8646 17.0853 17.5879 18.8375 15.9265 18.8375C15.0089 18.8375 14.3219 18.0784 14.5423 17.1476C14.8065 16.0366 15.3167 14.8378 15.3167 14.0353C15.3167 13.3177 14.9316 12.7191 14.1338 12.7191C13.1958 12.7191 12.4423 13.6889 12.4423 14.989C12.4423 15.8162 12.7225 16.3765 12.7225 16.3765C12.7225 16.3765 11.7959 20.2941 11.6262 21.0233C11.4561 21.7519 11.5017 22.7332 11.5718 23.4638C8.22658 22.1098 5.86957 18.8345 5.86957 15C5.86957 9.95225 9.95225 5.86957 15 5.86957Z" fill="#041827"/>
</symbol><symbol id="services-arrow" viewBox="0 0 5 10"><g fill="none">
<path d="M0.476196 8.80957L4.28572 5.00005L0.476196 1.19052" stroke-linejoin="round"/>
</g></symbol><symbol id="vk" viewBox="0 0 30 30">
<path d="M21.617 17.4544C20.3818 16.2726 20.2935 16.2726 21.3523 14.9091C22.6758 13.1819 24.4405 11.0002 22.8523 11.0002H19.9406C19.4112 11.0002 19.323 11.3638 19.1465 11.8184C18.4406 13.5455 17.0289 15.8181 16.4995 15.4545C15.9701 15.0909 16.2348 13.7273 16.2348 11.5457C16.323 11.2729 16.2348 11.0002 16.0583 10.8184C15.8819 10.6366 15.6172 10.4548 15.3525 10.4548C14.9113 10.3639 14.4702 10.273 14.029 10.273C12.3526 10.273 11.2056 11.0002 11.8232 11.0911C12.9702 11.2729 12.882 13.8182 12.6173 14.9091C12.1761 16.8181 10.4115 13.4546 9.61736 11.7275C9.52913 11.2729 9.1762 11.0002 8.73504 11.0002H6.44099C6.08806 11.0002 5.82336 11.0911 5.82336 11.3638C5.82336 11.8184 8.02917 16.2726 10.0585 18.5452C12.0879 20.7269 14.1172 20.5451 15.529 20.5451C15.7054 20.5451 15.8819 20.4542 15.9701 20.3633C16.0583 20.2724 16.1466 20.0906 16.1466 19.9088C16.1466 18.4543 16.676 17.7271 17.6465 18.727C18.7053 19.8179 18.97 20.5451 20.2935 20.5451H22.6758C23.2934 20.5451 23.4699 20.3633 23.4699 20.0906C23.5581 19.4543 22.4993 18.2725 21.617 17.4544ZM15.3525 0.000910576C23.5581 0.182718 30.0873 7.00048 29.9991 15.2727C29.9109 23.5449 23.117 30.09 14.9113 29.9991C6.61745 29.9082 0 23.2722 0 15C0.0882327 6.63687 6.97038 -0.0899929 15.3525 0.000910576Z"/>
</symbol></svg>