<svg width="133" height="20" viewBox="0 0 133 20" xmlns="http://www.w3.org/2000/svg">
<path d="M8.95996 14.3247C8.95996 14.0073 8.93148 13.7184 8.87451 13.458C8.81755 13.1976 8.69548 12.9575 8.5083 12.7378C8.32926 12.5181 8.06478 12.2983 7.71484 12.0786C7.37305 11.8589 6.92546 11.631 6.37207 11.395C5.71289 11.1183 5.07406 10.8254 4.45557 10.5161C3.83708 10.1987 3.27962 9.83252 2.7832 9.41748C2.28678 9.00244 1.89209 8.51416 1.59912 7.95264C1.31429 7.38298 1.17188 6.71566 1.17188 5.95068C1.17188 5.20199 1.30615 4.52246 1.57471 3.91211C1.8514 3.30176 2.24202 2.78092 2.74658 2.34961C3.25114 1.91016 3.84115 1.57243 4.5166 1.33643C5.2002 1.10042 5.9611 0.982422 6.79932 0.982422C7.93864 0.982422 8.92334 1.21842 9.75342 1.69043C10.5916 2.16243 11.2386 2.80941 11.6943 3.63135C12.1582 4.45329 12.3901 5.3973 12.3901 6.46338H8.82568C8.82568 5.95882 8.75244 5.5153 8.60596 5.13281C8.46761 4.74219 8.24382 4.43701 7.93457 4.21729C7.62533 3.99756 7.22656 3.8877 6.73828 3.8877C6.28255 3.8877 5.90413 3.98128 5.60303 4.16846C5.31006 4.34749 5.09033 4.5957 4.94385 4.91309C4.8055 5.22233 4.73633 5.57227 4.73633 5.96289C4.73633 6.25586 4.8055 6.52035 4.94385 6.75635C5.09033 6.98421 5.28971 7.19173 5.54199 7.37891C5.79427 7.55794 6.09131 7.73291 6.43311 7.90381C6.78304 8.07471 7.16553 8.24154 7.58057 8.4043C8.38623 8.72168 9.09831 9.07161 9.7168 9.4541C10.3353 9.82845 10.8521 10.2516 11.2671 10.7236C11.6821 11.1875 11.9954 11.7124 12.207 12.2983C12.4186 12.8843 12.5244 13.5516 12.5244 14.3003C12.5244 15.0409 12.3942 15.7163 12.1338 16.3267C11.8815 16.9289 11.5112 17.4497 11.0229 17.8892C10.5347 18.3205 9.94466 18.6541 9.25293 18.8901C8.56934 19.1261 7.80436 19.2441 6.95801 19.2441C6.13607 19.2441 5.35889 19.1302 4.62646 18.9023C3.89404 18.6663 3.24707 18.3123 2.68555 17.8403C2.13216 17.3602 1.69678 16.7539 1.37939 16.0215C1.06201 15.2809 0.90332 14.4061 0.90332 13.397H4.47998C4.47998 13.9341 4.53288 14.3939 4.63867 14.7764C4.74447 15.1507 4.90723 15.4518 5.12695 15.6797C5.34668 15.8994 5.61523 16.0662 5.93262 16.1802C6.25814 16.286 6.62842 16.3389 7.04346 16.3389C7.51546 16.3389 7.88981 16.2493 8.1665 16.0703C8.45133 15.8913 8.65479 15.6512 8.77686 15.3501C8.89893 15.049 8.95996 14.7072 8.95996 14.3247ZM18.2129 8.52637V19H14.7827V5.79199H18.0054L18.2129 8.52637ZM17.7246 11.9443L16.7847 11.9688C16.7684 11.041 16.8498 10.1865 17.0288 9.40527C17.2078 8.62402 17.4764 7.9445 17.8345 7.3667C18.2007 6.7889 18.6605 6.34131 19.2139 6.02393C19.7673 5.70654 20.4142 5.54785 21.1548 5.54785C21.6349 5.54785 22.0785 5.63737 22.4854 5.81641C22.8923 5.9873 23.2463 6.25993 23.5474 6.63428C23.8485 7.00049 24.0804 7.48063 24.2432 8.07471C24.4059 8.66064 24.4873 9.36458 24.4873 10.1865V19H21.0693V10.6016C21.0693 10.0156 21.0124 9.56803 20.8984 9.25879C20.7845 8.94141 20.6217 8.72168 20.4102 8.59961C20.1986 8.4694 19.9382 8.4043 19.6289 8.4043C19.3034 8.4043 19.0186 8.49382 18.7744 8.67285C18.5303 8.85189 18.3309 9.10417 18.1763 9.42969C18.0298 9.74707 17.9159 10.1214 17.8345 10.5527C17.7612 10.984 17.7246 11.4479 17.7246 11.9443ZM24.1577 11.6025L22.9248 11.7612C22.9085 10.8905 22.9858 10.0807 23.1567 9.33203C23.3276 8.5752 23.5921 7.91602 23.9502 7.35449C24.3083 6.78483 24.7559 6.34131 25.293 6.02393C25.8382 5.70654 26.4689 5.54785 27.1851 5.54785C27.7222 5.54785 28.2104 5.63737 28.6499 5.81641C29.0894 5.99544 29.4637 6.28434 29.7729 6.68311C30.0903 7.07373 30.3304 7.59049 30.4932 8.2334C30.6641 8.8763 30.7495 9.65755 30.7495 10.5771V19H27.3193V10.5894C27.3193 9.99528 27.2624 9.53955 27.1484 9.22217C27.0345 8.90479 26.8717 8.68913 26.6602 8.5752C26.4486 8.46126 26.1963 8.4043 25.9033 8.4043C25.6104 8.4043 25.354 8.48568 25.1343 8.64844C24.9227 8.8112 24.7437 9.03906 24.5972 9.33203C24.4507 9.61686 24.3408 9.95459 24.2676 10.3452C24.1943 10.7277 24.1577 11.1468 24.1577 11.6025ZM39.1479 15.9604V9.85693C39.1479 9.45817 39.0991 9.14079 39.0015 8.90479C38.9119 8.66878 38.7736 8.49788 38.5864 8.39209C38.4074 8.27816 38.1877 8.22119 37.9272 8.22119C37.6343 8.22119 37.3901 8.28223 37.1948 8.4043C36.9995 8.52637 36.853 8.70133 36.7554 8.9292C36.6659 9.15706 36.6211 9.42969 36.6211 9.74707H33.1909C33.1909 9.17741 33.3008 8.6403 33.5205 8.13574C33.7402 7.62305 34.0617 7.17546 34.4849 6.79297C34.9162 6.40234 35.4289 6.09717 36.0229 5.87744C36.617 5.65771 37.2843 5.54785 38.0249 5.54785C38.9038 5.54785 39.6851 5.6984 40.3687 5.99951C41.0522 6.29248 41.5934 6.76042 41.9922 7.40332C42.391 8.04622 42.5903 8.88037 42.5903 9.90576V15.7896C42.5903 16.5301 42.627 17.1323 42.7002 17.5962C42.7816 18.0601 42.8996 18.4588 43.0542 18.7925V19H39.6118C39.4572 18.6338 39.3392 18.1781 39.2578 17.6328C39.1846 17.0794 39.1479 16.522 39.1479 15.9604ZM39.563 10.9312L39.5752 12.9819H38.3179C37.9924 12.9819 37.7075 13.0348 37.4634 13.1406C37.2274 13.2464 37.028 13.397 36.8652 13.5923C36.7025 13.7795 36.5804 13.9992 36.499 14.2515C36.4258 14.5037 36.3892 14.7723 36.3892 15.0571C36.3892 15.3745 36.4339 15.6431 36.5234 15.8628C36.613 16.0825 36.7472 16.2493 36.9263 16.3633C37.1053 16.4772 37.3169 16.5342 37.561 16.5342C37.9354 16.5342 38.2609 16.4569 38.5376 16.3022C38.8143 16.1476 39.0177 15.9604 39.1479 15.7407C39.2863 15.521 39.3311 15.3175 39.2822 15.1304L40.0635 16.4609C39.9658 16.762 39.8315 17.0754 39.6606 17.4009C39.4979 17.7264 39.2904 18.0275 39.0381 18.3042C38.7858 18.5809 38.4725 18.8088 38.0981 18.9878C37.7319 19.1587 37.2965 19.2441 36.792 19.2441C36.084 19.2441 35.437 19.0814 34.8511 18.7559C34.2651 18.4303 33.8013 17.9746 33.4595 17.3887C33.1258 16.8027 32.959 16.1069 32.959 15.3013C32.959 14.634 33.0648 14.0317 33.2764 13.4946C33.4961 12.9494 33.8216 12.4896 34.2529 12.1152C34.6842 11.7327 35.2295 11.4398 35.8887 11.2363C36.5479 11.0329 37.321 10.9312 38.208 10.9312H39.563ZM48.5352 8.73389V19H45.1172V5.79199H48.3398L48.5352 8.73389ZM51.6479 5.69434L51.5991 9.1001C51.4445 9.06755 51.2573 9.04313 51.0376 9.02686C50.826 9.01058 50.6388 9.00244 50.4761 9.00244C50.0936 9.00244 49.7681 9.06348 49.4995 9.18555C49.231 9.29948 49.0072 9.47445 48.8281 9.71045C48.6572 9.93831 48.527 10.2231 48.4375 10.5649C48.348 10.9067 48.2951 11.2933 48.2788 11.7246L47.6318 11.4805C47.6318 10.6178 47.6969 9.82845 47.8271 9.1123C47.9655 8.38802 48.1689 7.76139 48.4375 7.23242C48.7061 6.69531 49.0275 6.28027 49.4019 5.9873C49.7843 5.69434 50.2157 5.54785 50.6958 5.54785C50.8586 5.54785 51.0295 5.56413 51.2085 5.59668C51.3957 5.62109 51.5422 5.65365 51.6479 5.69434ZM59.7656 5.79199V8.36768H53.0273V5.79199H59.7656ZM54.5776 2.53271H57.9834V14.9717C57.9834 15.3379 58.02 15.6187 58.0933 15.814C58.1665 16.0093 58.2764 16.1476 58.4229 16.229C58.5775 16.3022 58.7809 16.3389 59.0332 16.3389C59.2041 16.3389 59.3628 16.3307 59.5093 16.3145C59.6558 16.29 59.7656 16.2656 59.8389 16.2412V18.9146C59.5703 19.0203 59.2855 19.1017 58.9844 19.1587C58.6914 19.2157 58.3415 19.2441 57.9346 19.2441C57.251 19.2441 56.6569 19.1139 56.1523 18.8535C55.6559 18.5931 55.2694 18.1781 54.9927 17.6084C54.716 17.0306 54.5776 16.2738 54.5776 15.3379V2.53271ZM72.2412 19H69.104L69.1284 16.0459H72.2412C73.1038 16.0459 73.7752 15.8913 74.2554 15.582C74.7355 15.2728 75.0732 14.7845 75.2686 14.1172C75.472 13.4499 75.5737 12.575 75.5737 11.4927V8.72168C75.5737 7.89974 75.5208 7.20394 75.415 6.63428C75.3092 6.05648 75.1302 5.59261 74.8779 5.24268C74.6257 4.8846 74.2879 4.62012 73.8647 4.44922C73.4416 4.27832 72.9167 4.19287 72.29 4.19287H69.043V1.22656H72.29C73.3154 1.22656 74.2472 1.39339 75.0854 1.72705C75.9237 2.06071 76.6439 2.54899 77.2461 3.19189C77.8483 3.82666 78.3122 4.61198 78.6377 5.54785C78.9632 6.48372 79.126 7.5498 79.126 8.74609V11.4927C79.126 12.6971 78.9632 13.7632 78.6377 14.6909C78.3122 15.6187 77.8483 16.404 77.2461 17.0469C76.652 17.6816 75.9318 18.1659 75.0854 18.4995C74.2391 18.8332 73.291 19 72.2412 19ZM71.1792 1.22656V19H67.6025V1.22656H71.1792ZM86.8896 19.2441C85.9863 19.2441 85.1847 19.1058 84.4849 18.8291C83.7931 18.5524 83.2072 18.1536 82.7271 17.6328C82.2469 17.1038 81.8807 16.465 81.6284 15.7163C81.3761 14.9676 81.25 14.1131 81.25 13.1528V12.0664C81.25 10.9922 81.3721 10.0522 81.6162 9.24658C81.8604 8.43278 82.2062 7.74919 82.6538 7.1958C83.1014 6.64242 83.6507 6.23145 84.3018 5.96289C84.9609 5.6862 85.7056 5.54785 86.5356 5.54785C87.3657 5.54785 88.0941 5.6862 88.7207 5.96289C89.3555 6.23145 89.8804 6.63835 90.2954 7.18359C90.7104 7.7207 91.0238 8.38802 91.2354 9.18555C91.4469 9.98307 91.5527 10.9108 91.5527 11.9688V13.5312H82.7026V11.1265H88.1958V10.8213C88.1958 10.2842 88.1388 9.83659 88.0249 9.47852C87.911 9.1123 87.7319 8.83968 87.4878 8.66064C87.2437 8.48161 86.9181 8.39209 86.5112 8.39209C86.1694 8.39209 85.8805 8.46126 85.6445 8.59961C85.4085 8.73796 85.2214 8.95361 85.083 9.24658C84.9447 9.53955 84.8429 9.92204 84.7778 10.394C84.7127 10.8579 84.6802 11.4154 84.6802 12.0664V13.1528C84.6802 13.7632 84.7331 14.2759 84.8389 14.6909C84.9447 15.0978 85.0993 15.4315 85.3027 15.6919C85.5143 15.9442 85.7707 16.1273 86.0718 16.2412C86.3729 16.347 86.7228 16.3999 87.1216 16.3999C87.7238 16.3999 88.265 16.2941 88.7451 16.0825C89.2334 15.8628 89.6484 15.5658 89.9902 15.1914L91.3574 17.2666C91.1214 17.5758 90.7959 17.8851 90.3809 18.1943C89.9658 18.5036 89.4694 18.7559 88.8916 18.9512C88.3138 19.1465 87.6465 19.2441 86.8896 19.2441ZM97.2534 16.3633L99.3774 5.79199H102.942L99.3164 19H97.1802L97.2534 16.3633ZM95.9961 5.79199L98.1567 16.3755L98.1934 19H96.0449L92.4194 5.79199H95.9961ZM108.179 5.79199V19H104.749V5.79199H108.179ZM104.59 2.37402C104.59 1.84505 104.757 1.40967 105.09 1.06787C105.432 0.717936 105.888 0.542969 106.458 0.542969C107.035 0.542969 107.491 0.717936 107.825 1.06787C108.158 1.40967 108.325 1.84505 108.325 2.37402C108.325 2.89486 108.154 3.33024 107.812 3.68018C107.479 4.02197 107.031 4.19287 106.47 4.19287C105.892 4.19287 105.432 4.02197 105.09 3.68018C104.757 3.33024 104.59 2.89486 104.59 2.37402ZM115.662 16.3999C115.979 16.3999 116.252 16.3348 116.479 16.2046C116.715 16.0744 116.895 15.8628 117.017 15.5698C117.139 15.2769 117.204 14.8984 117.212 14.4346H120.422C120.422 15.4274 120.211 16.286 119.788 17.0103C119.373 17.7264 118.811 18.2798 118.103 18.6704C117.403 19.0529 116.61 19.2441 115.723 19.2441C114.836 19.2441 114.062 19.1017 113.403 18.8169C112.744 18.5321 112.199 18.117 111.768 17.5718C111.344 17.0265 111.023 16.3633 110.803 15.582C110.592 14.7926 110.486 13.8893 110.486 12.8721V11.9077C110.486 10.9067 110.592 10.0116 110.803 9.22217C111.023 8.43278 111.344 7.76546 111.768 7.22021C112.199 6.67497 112.74 6.25993 113.391 5.9751C114.05 5.69027 114.823 5.54785 115.71 5.54785C116.663 5.54785 117.489 5.74723 118.188 6.146C118.888 6.53662 119.434 7.11442 119.824 7.87939C120.223 8.64437 120.422 9.58838 120.422 10.7114H117.212C117.204 10.2069 117.143 9.78776 117.029 9.4541C116.923 9.1123 116.756 8.85189 116.528 8.67285C116.309 8.48568 116.016 8.39209 115.649 8.39209C115.267 8.39209 114.958 8.47347 114.722 8.63623C114.494 8.79085 114.319 9.01872 114.197 9.31982C114.083 9.61279 114.006 9.979 113.965 10.4185C113.924 10.8579 113.904 11.3543 113.904 11.9077V12.8721C113.904 13.4661 113.92 13.9829 113.953 14.4224C113.993 14.8537 114.071 15.2199 114.185 15.521C114.307 15.814 114.482 16.0337 114.709 16.1802C114.945 16.3267 115.263 16.3999 115.662 16.3999ZM127.71 19.2441C126.807 19.2441 126.005 19.1058 125.305 18.8291C124.613 18.5524 124.028 18.1536 123.547 17.6328C123.067 17.1038 122.701 16.465 122.449 15.7163C122.196 14.9676 122.07 14.1131 122.07 13.1528V12.0664C122.07 10.9922 122.192 10.0522 122.437 9.24658C122.681 8.43278 123.027 7.74919 123.474 7.1958C123.922 6.64242 124.471 6.23145 125.122 5.96289C125.781 5.6862 126.526 5.54785 127.356 5.54785C128.186 5.54785 128.914 5.6862 129.541 5.96289C130.176 6.23145 130.701 6.63835 131.116 7.18359C131.531 7.7207 131.844 8.38802 132.056 9.18555C132.267 9.98307 132.373 10.9108 132.373 11.9688V13.5312H123.523V11.1265H129.016V10.8213C129.016 10.2842 128.959 9.83659 128.845 9.47852C128.731 9.1123 128.552 8.83968 128.308 8.66064C128.064 8.48161 127.738 8.39209 127.332 8.39209C126.99 8.39209 126.701 8.46126 126.465 8.59961C126.229 8.73796 126.042 8.95361 125.903 9.24658C125.765 9.53955 125.663 9.92204 125.598 10.394C125.533 10.8579 125.5 11.4154 125.5 12.0664V13.1528C125.5 13.7632 125.553 14.2759 125.659 14.6909C125.765 15.0978 125.92 15.4315 126.123 15.6919C126.335 15.9442 126.591 16.1273 126.892 16.2412C127.193 16.347 127.543 16.3999 127.942 16.3999C128.544 16.3999 129.085 16.2941 129.565 16.0825C130.054 15.8628 130.469 15.5658 130.811 15.1914L132.178 17.2666C131.942 17.5758 131.616 17.8851 131.201 18.1943C130.786 18.5036 130.29 18.7559 129.712 18.9512C129.134 19.1465 128.467 19.2441 127.71 19.2441Z"/>
</svg>
